<svg width="800" height="444" viewBox="0 0 800 444" fill="none" xmlns="http://www.w3.org/2000/svg">
<g id="New Campus Form">
<g id="Header">
<rect id="Rectangle" y="138" width="800" height="52" fill="#C4C4C4"/>
<g id="Home">
<path d="M22.7383 175H20.6875V167.113H13.6914V175H11.6523V157.938H13.6914V165.273H20.6875V157.938H22.7383V175ZM25.8438 168.543C25.8438 167.629 25.9766 166.781 26.2422 166C26.5078 165.211 26.8867 164.527 27.3789 163.949C27.8789 163.371 28.4844 162.918 29.1953 162.59C29.9062 162.254 30.707 162.086 31.5977 162.086C32.4961 162.086 33.3008 162.254 34.0117 162.59C34.7305 162.918 35.3359 163.371 35.8281 163.949C36.3281 164.527 36.7109 165.211 36.9766 166C37.2422 166.781 37.375 167.629 37.375 168.543V168.801C37.375 169.715 37.2422 170.562 36.9766 171.344C36.7109 172.125 36.3281 172.805 35.8281 173.383C35.3359 173.961 34.7344 174.414 34.0234 174.742C33.3125 175.07 32.5117 175.234 31.6211 175.234C30.7227 175.234 29.9141 175.07 29.1953 174.742C28.4844 174.414 27.8789 173.961 27.3789 173.383C26.8867 172.805 26.5078 172.125 26.2422 171.344C25.9766 170.562 25.8438 169.715 25.8438 168.801V168.543ZM28.0117 168.801C28.0117 169.426 28.0859 170.023 28.2344 170.594C28.3828 171.156 28.6055 171.652 28.9023 172.082C29.207 172.512 29.5859 172.852 30.0391 173.102C30.4922 173.352 31.0195 173.477 31.6211 173.477C32.2148 173.477 32.7344 173.352 33.1797 173.102C33.6328 172.852 34.0078 172.512 34.3047 172.082C34.6094 171.652 34.8359 171.156 34.9844 170.594C35.1328 170.023 35.207 169.426 35.207 168.801V168.543C35.207 167.926 35.1289 167.336 34.9727 166.773C34.8242 166.203 34.5977 165.703 34.293 165.273C33.9961 164.844 33.6211 164.504 33.168 164.254C32.7227 163.996 32.1992 163.867 31.5977 163.867C30.9961 163.867 30.4727 163.996 30.0273 164.254C29.582 164.504 29.207 164.844 28.9023 165.273C28.6055 165.703 28.3828 166.203 28.2344 166.773C28.0859 167.336 28.0117 167.926 28.0117 168.543V168.801ZM41.8633 162.32L41.9219 163.516C42.1797 163.07 42.5156 162.723 42.9297 162.473C43.3516 162.223 43.8594 162.094 44.4531 162.086C45.6172 162.086 46.3945 162.539 46.7852 163.445C47.0352 163.039 47.3633 162.715 47.7695 162.473C48.1836 162.223 48.6836 162.094 49.2695 162.086C50.1992 162.086 50.9141 162.371 51.4141 162.941C51.9141 163.512 52.1641 164.375 52.1641 165.531V175H50.1016V165.508C50.1016 164.445 49.6133 163.918 48.6367 163.926C48.3789 163.926 48.1562 163.961 47.9688 164.031C47.7812 164.102 47.625 164.199 47.5 164.324C47.375 164.441 47.2773 164.582 47.207 164.746C47.1367 164.902 47.0898 165.066 47.0664 165.238V175H45.0039V165.496C45.0039 164.988 44.8906 164.598 44.6641 164.324C44.4375 164.051 44.0781 163.918 43.5859 163.926C43.1328 163.926 42.7812 164.016 42.5312 164.195C42.2812 164.375 42.0977 164.613 41.9805 164.91V175H39.918V162.32H41.8633ZM60.8828 175.234C59.9922 175.234 59.1719 175.082 58.4219 174.777C57.6797 174.473 57.043 174.047 56.5117 173.5C55.9805 172.953 55.5664 172.305 55.2695 171.555C54.9727 170.805 54.8242 169.988 54.8242 169.105V168.613C54.8242 167.59 54.9883 166.676 55.3164 165.871C55.6445 165.059 56.0781 164.375 56.6172 163.82C57.1641 163.258 57.7812 162.828 58.4688 162.531C59.1641 162.234 59.875 162.086 60.6016 162.086C61.5156 162.086 62.3125 162.246 62.9922 162.566C63.6797 162.879 64.25 163.316 64.7031 163.879C65.1562 164.434 65.4922 165.09 65.7109 165.848C65.9375 166.605 66.0508 167.426 66.0508 168.309V169.281H56.9922C57.0156 169.859 57.125 170.402 57.3203 170.91C57.5234 171.418 57.7969 171.863 58.1406 172.246C58.4922 172.621 58.9102 172.918 59.3945 173.137C59.8789 173.355 60.4141 173.465 61 173.465C61.7734 173.465 62.4609 173.309 63.0625 172.996C63.6641 172.684 64.1641 172.27 64.5625 171.754L65.8867 172.785C65.6758 173.105 65.4102 173.414 65.0898 173.711C64.7773 174 64.4141 174.258 64 174.484C63.5859 174.711 63.1172 174.891 62.5938 175.023C62.0703 175.164 61.5 175.234 60.8828 175.234ZM60.6016 163.867C60.1641 163.867 59.75 163.949 59.3594 164.113C58.9688 164.27 58.6172 164.504 58.3047 164.816C57.9922 165.121 57.7266 165.5 57.5078 165.953C57.2969 166.398 57.1484 166.914 57.0625 167.5H63.8828V167.336C63.8594 166.914 63.7773 166.496 63.6367 166.082C63.5039 165.668 63.3047 165.297 63.0391 164.969C62.7734 164.641 62.4375 164.375 62.0312 164.172C61.6328 163.969 61.1562 163.867 60.6016 163.867Z" fill="black"/>
<path d="M10 177.609H67.6445V178.781H10V177.609Z" fill="black"/>
</g>
<g id="Students">
<path d="M668.969 170.688C668.969 170.164 668.848 169.723 668.605 169.363C668.371 169.004 668.066 168.703 667.691 168.461C667.316 168.211 666.902 168.004 666.449 167.84C666.004 167.676 665.574 167.527 665.16 167.395C664.559 167.199 663.945 166.965 663.32 166.691C662.703 166.418 662.137 166.082 661.621 165.684C661.113 165.285 660.695 164.816 660.367 164.277C660.047 163.73 659.887 163.09 659.887 162.355C659.887 161.621 660.047 160.965 660.367 160.387C660.695 159.809 661.121 159.32 661.645 158.922C662.168 158.523 662.762 158.223 663.426 158.02C664.09 157.809 664.758 157.703 665.43 157.703C666.172 157.703 666.887 157.828 667.574 158.078C668.262 158.32 668.871 158.664 669.402 159.109C669.934 159.555 670.359 160.094 670.68 160.727C671 161.359 671.168 162.066 671.184 162.848H668.957C668.895 162.355 668.773 161.91 668.594 161.512C668.414 161.105 668.176 160.758 667.879 160.469C667.582 160.18 667.227 159.957 666.812 159.801C666.406 159.637 665.945 159.555 665.43 159.555C665.016 159.555 664.609 159.613 664.211 159.73C663.82 159.848 663.469 160.023 663.156 160.258C662.852 160.492 662.605 160.781 662.418 161.125C662.238 161.469 662.148 161.867 662.148 162.32C662.156 162.812 662.281 163.23 662.523 163.574C662.766 163.91 663.07 164.195 663.438 164.43C663.812 164.664 664.215 164.859 664.645 165.016C665.082 165.172 665.492 165.309 665.875 165.426C666.297 165.559 666.723 165.711 667.152 165.883C667.582 166.047 667.996 166.238 668.395 166.457C668.793 166.676 669.164 166.922 669.508 167.195C669.852 167.469 670.152 167.781 670.41 168.133C670.668 168.477 670.867 168.859 671.008 169.281C671.156 169.695 671.23 170.156 671.23 170.664C671.23 171.43 671.059 172.098 670.715 172.668C670.379 173.238 669.941 173.715 669.402 174.098C668.863 174.473 668.254 174.758 667.574 174.953C666.895 175.141 666.215 175.234 665.535 175.234C664.777 175.234 664.035 175.117 663.309 174.883C662.582 174.648 661.93 174.312 661.352 173.875C660.781 173.43 660.316 172.891 659.957 172.258C659.598 171.617 659.406 170.891 659.383 170.078H661.598C661.668 170.609 661.812 171.082 662.031 171.496C662.25 171.902 662.531 172.25 662.875 172.539C663.219 172.82 663.613 173.035 664.059 173.184C664.512 173.324 665.004 173.395 665.535 173.395C665.957 173.395 666.371 173.344 666.777 173.242C667.191 173.133 667.559 172.969 667.879 172.75C668.199 172.523 668.461 172.242 668.664 171.906C668.867 171.562 668.969 171.156 668.969 170.688ZM679.586 159.25V162.32H684.414V163.996H679.586V170.887C679.586 171.379 679.648 171.785 679.773 172.105C679.898 172.426 680.07 172.684 680.289 172.879C680.508 173.066 680.758 173.199 681.039 173.277C681.328 173.355 681.633 173.395 681.953 173.395C682.188 173.395 682.43 173.383 682.68 173.359C682.93 173.328 683.172 173.293 683.406 173.254C683.648 173.215 683.871 173.176 684.074 173.137C684.285 173.09 684.457 173.051 684.59 173.02L684.895 174.555C684.715 174.664 684.496 174.762 684.238 174.848C683.98 174.926 683.699 174.992 683.395 175.047C683.09 175.109 682.766 175.156 682.422 175.188C682.086 175.219 681.75 175.234 681.414 175.234C680.852 175.234 680.324 175.156 679.832 175C679.348 174.836 678.926 174.582 678.566 174.238C678.207 173.887 677.922 173.438 677.711 172.891C677.508 172.336 677.406 171.668 677.406 170.887V163.996H674.078V162.32H677.406V159.25H679.586ZM697.094 173.254C696.672 173.879 696.145 174.367 695.512 174.719C694.879 175.062 694.148 175.234 693.32 175.234C692.656 175.234 692.055 175.133 691.516 174.93C690.977 174.719 690.516 174.395 690.133 173.957C689.75 173.52 689.453 172.965 689.242 172.293C689.039 171.613 688.938 170.801 688.938 169.855V162.32H691.105V169.879C691.105 170.566 691.16 171.137 691.27 171.59C691.379 172.043 691.543 172.406 691.762 172.68C691.98 172.945 692.246 173.133 692.559 173.242C692.879 173.352 693.246 173.406 693.66 173.406C694.543 173.406 695.254 173.227 695.793 172.867C696.34 172.508 696.746 172.023 697.012 171.414V162.32H699.191V175H697.223L697.094 173.254ZM702.871 168.555C702.871 167.609 702.988 166.742 703.223 165.953C703.465 165.156 703.805 164.473 704.242 163.902C704.688 163.332 705.223 162.887 705.848 162.566C706.473 162.246 707.172 162.086 707.945 162.086C708.703 162.086 709.363 162.215 709.926 162.473C710.496 162.723 710.988 163.09 711.402 163.574V157H713.57V175H711.578L711.484 173.664C711.062 174.18 710.559 174.57 709.973 174.836C709.387 175.102 708.703 175.234 707.922 175.234C707.156 175.234 706.461 175.07 705.836 174.742C705.219 174.414 704.691 173.961 704.254 173.383C703.816 172.805 703.477 172.125 703.234 171.344C702.992 170.555 702.871 169.707 702.871 168.801V168.555ZM705.039 168.801C705.039 169.418 705.105 170.004 705.238 170.559C705.371 171.113 705.574 171.602 705.848 172.023C706.129 172.445 706.484 172.781 706.914 173.031C707.344 173.273 707.859 173.395 708.461 173.395C708.828 173.395 709.16 173.352 709.457 173.266C709.754 173.18 710.023 173.059 710.266 172.902C710.508 172.738 710.723 172.547 710.91 172.328C711.098 172.102 711.262 171.852 711.402 171.578V165.695C711.121 165.18 710.742 164.758 710.266 164.43C709.789 164.094 709.195 163.926 708.484 163.926C707.875 163.926 707.352 164.051 706.914 164.301C706.484 164.551 706.129 164.891 705.848 165.32C705.574 165.742 705.371 166.234 705.238 166.797C705.105 167.352 705.039 167.938 705.039 168.555V168.801ZM723.297 175.234C722.406 175.234 721.586 175.082 720.836 174.777C720.094 174.473 719.457 174.047 718.926 173.5C718.395 172.953 717.98 172.305 717.684 171.555C717.387 170.805 717.238 169.988 717.238 169.105V168.613C717.238 167.59 717.402 166.676 717.73 165.871C718.059 165.059 718.492 164.375 719.031 163.82C719.578 163.258 720.195 162.828 720.883 162.531C721.578 162.234 722.289 162.086 723.016 162.086C723.93 162.086 724.727 162.246 725.406 162.566C726.094 162.879 726.664 163.316 727.117 163.879C727.57 164.434 727.906 165.09 728.125 165.848C728.352 166.605 728.465 167.426 728.465 168.309V169.281H719.406C719.43 169.859 719.539 170.402 719.734 170.91C719.938 171.418 720.211 171.863 720.555 172.246C720.906 172.621 721.324 172.918 721.809 173.137C722.293 173.355 722.828 173.465 723.414 173.465C724.188 173.465 724.875 173.309 725.477 172.996C726.078 172.684 726.578 172.27 726.977 171.754L728.301 172.785C728.09 173.105 727.824 173.414 727.504 173.711C727.191 174 726.828 174.258 726.414 174.484C726 174.711 725.531 174.891 725.008 175.023C724.484 175.164 723.914 175.234 723.297 175.234ZM723.016 163.867C722.578 163.867 722.164 163.949 721.773 164.113C721.383 164.27 721.031 164.504 720.719 164.816C720.406 165.121 720.141 165.5 719.922 165.953C719.711 166.398 719.562 166.914 719.477 167.5H726.297V167.336C726.273 166.914 726.191 166.496 726.051 166.082C725.918 165.668 725.719 165.297 725.453 164.969C725.188 164.641 724.852 164.375 724.445 164.172C724.047 163.969 723.57 163.867 723.016 163.867ZM734.055 162.32L734.207 164.195C734.668 163.539 735.234 163.027 735.906 162.66C736.578 162.285 737.328 162.094 738.156 162.086C738.82 162.086 739.422 162.18 739.961 162.367C740.508 162.555 740.973 162.848 741.355 163.246C741.738 163.645 742.031 164.152 742.234 164.77C742.445 165.379 742.551 166.105 742.551 166.949V175H740.383V166.996C740.383 166.434 740.32 165.957 740.195 165.566C740.07 165.176 739.883 164.859 739.633 164.617C739.391 164.375 739.09 164.199 738.73 164.09C738.379 163.98 737.973 163.926 737.512 163.926C736.785 163.926 736.145 164.109 735.59 164.477C735.043 164.836 734.605 165.312 734.277 165.906V175H732.109V162.32H734.055ZM751.656 159.25V162.32H756.484V163.996H751.656V170.887C751.656 171.379 751.719 171.785 751.844 172.105C751.969 172.426 752.141 172.684 752.359 172.879C752.578 173.066 752.828 173.199 753.109 173.277C753.398 173.355 753.703 173.395 754.023 173.395C754.258 173.395 754.5 173.383 754.75 173.359C755 173.328 755.242 173.293 755.477 173.254C755.719 173.215 755.941 173.176 756.145 173.137C756.355 173.09 756.527 173.051 756.66 173.02L756.965 174.555C756.785 174.664 756.566 174.762 756.309 174.848C756.051 174.926 755.77 174.992 755.465 175.047C755.16 175.109 754.836 175.156 754.492 175.188C754.156 175.219 753.82 175.234 753.484 175.234C752.922 175.234 752.395 175.156 751.902 175C751.418 174.836 750.996 174.582 750.637 174.238C750.277 173.887 749.992 173.438 749.781 172.891C749.578 172.336 749.477 171.668 749.477 170.887V163.996H746.148V162.32H749.477V159.25H751.656ZM769.363 171.637C769.363 171.379 769.312 171.148 769.211 170.945C769.109 170.734 768.938 170.543 768.695 170.371C768.453 170.199 768.133 170.043 767.734 169.902C767.336 169.754 766.84 169.621 766.246 169.504C765.52 169.355 764.855 169.176 764.254 168.965C763.66 168.754 763.148 168.504 762.719 168.215C762.297 167.918 761.969 167.574 761.734 167.184C761.5 166.785 761.383 166.324 761.383 165.801C761.383 165.285 761.504 164.805 761.746 164.359C761.988 163.906 762.328 163.512 762.766 163.176C763.203 162.84 763.723 162.574 764.324 162.379C764.934 162.184 765.602 162.086 766.328 162.086C767.109 162.086 767.812 162.188 768.438 162.391C769.062 162.594 769.594 162.875 770.031 163.234C770.469 163.594 770.805 164.016 771.039 164.5C771.281 164.977 771.402 165.492 771.402 166.047H769.234C769.234 165.773 769.164 165.508 769.023 165.25C768.883 164.984 768.688 164.75 768.438 164.547C768.188 164.344 767.883 164.18 767.523 164.055C767.172 163.93 766.773 163.867 766.328 163.867C765.867 163.867 765.461 163.918 765.109 164.02C764.766 164.121 764.477 164.258 764.242 164.43C764.016 164.602 763.844 164.801 763.727 165.027C763.609 165.254 763.551 165.488 763.551 165.73C763.551 165.98 763.598 166.203 763.691 166.398C763.785 166.594 763.945 166.77 764.172 166.926C764.406 167.082 764.715 167.223 765.098 167.348C765.488 167.473 765.98 167.594 766.574 167.711C767.355 167.875 768.055 168.066 768.672 168.285C769.289 168.496 769.809 168.754 770.23 169.059C770.652 169.355 770.973 169.703 771.191 170.102C771.418 170.5 771.531 170.961 771.531 171.484C771.531 172.047 771.402 172.559 771.145 173.02C770.895 173.48 770.543 173.875 770.09 174.203C769.637 174.531 769.094 174.785 768.461 174.965C767.828 175.145 767.137 175.234 766.387 175.234C765.527 175.234 764.762 175.121 764.09 174.895C763.418 174.66 762.848 174.355 762.379 173.98C761.918 173.598 761.562 173.156 761.312 172.656C761.07 172.156 760.949 171.637 760.949 171.098H763.117C763.148 171.543 763.266 171.918 763.469 172.223C763.68 172.527 763.938 172.773 764.242 172.961C764.555 173.148 764.898 173.281 765.273 173.359C765.648 173.438 766.02 173.477 766.387 173.477C767.301 173.477 768.023 173.309 768.555 172.973C769.086 172.637 769.355 172.191 769.363 171.637Z" fill="black"/>
<path d="M658 177.609H773.301V178.781H658V177.609Z" fill="black"/>
</g>
<g id="Campuses">
<path d="M540.09 169.867C539.988 170.656 539.785 171.383 539.48 172.047C539.176 172.703 538.777 173.27 538.285 173.746C537.801 174.215 537.223 174.582 536.551 174.848C535.887 175.105 535.145 175.234 534.324 175.234C533.621 175.234 532.98 175.137 532.402 174.941C531.832 174.738 531.32 174.461 530.867 174.109C530.422 173.758 530.035 173.344 529.707 172.867C529.387 172.391 529.117 171.871 528.898 171.309C528.688 170.746 528.527 170.156 528.418 169.539C528.316 168.922 528.262 168.297 528.254 167.664V165.285C528.262 164.652 528.316 164.027 528.418 163.41C528.527 162.793 528.688 162.203 528.898 161.641C529.117 161.078 529.387 160.559 529.707 160.082C530.035 159.598 530.422 159.18 530.867 158.828C531.32 158.477 531.832 158.203 532.402 158.008C532.973 157.805 533.613 157.703 534.324 157.703C535.176 157.703 535.938 157.836 536.609 158.102C537.281 158.359 537.859 158.73 538.344 159.215C538.828 159.691 539.215 160.266 539.504 160.938C539.801 161.609 539.996 162.352 540.09 163.164H537.922C537.852 162.648 537.73 162.168 537.559 161.723C537.387 161.277 537.156 160.887 536.867 160.551C536.578 160.215 536.223 159.953 535.801 159.766C535.387 159.57 534.895 159.473 534.324 159.473C533.809 159.473 533.352 159.559 532.953 159.73C532.562 159.895 532.223 160.121 531.934 160.41C531.652 160.699 531.414 161.035 531.219 161.418C531.031 161.801 530.879 162.207 530.762 162.637C530.645 163.066 530.559 163.508 530.504 163.961C530.457 164.406 530.434 164.84 530.434 165.262V167.664C530.434 168.086 530.457 168.523 530.504 168.977C530.559 169.422 530.645 169.863 530.762 170.301C530.879 170.73 531.031 171.137 531.219 171.52C531.406 171.902 531.645 172.242 531.934 172.539C532.223 172.828 532.562 173.059 532.953 173.23C533.344 173.395 533.801 173.477 534.324 173.477C534.895 173.477 535.387 173.387 535.801 173.207C536.223 173.027 536.578 172.777 536.867 172.457C537.156 172.129 537.387 171.746 537.559 171.309C537.73 170.863 537.852 170.383 537.922 169.867H540.09ZM551.785 175C551.699 174.836 551.629 174.633 551.574 174.391C551.527 174.141 551.492 173.883 551.469 173.617C551.25 173.836 551.004 174.043 550.73 174.238C550.465 174.434 550.168 174.605 549.84 174.754C549.52 174.902 549.176 175.02 548.809 175.105C548.441 175.191 548.051 175.234 547.637 175.234C546.965 175.234 546.355 175.137 545.809 174.941C545.27 174.746 544.809 174.484 544.426 174.156C544.051 173.82 543.758 173.426 543.547 172.973C543.344 172.512 543.242 172.016 543.242 171.484C543.242 170.789 543.379 170.18 543.652 169.656C543.934 169.133 544.328 168.699 544.836 168.355C545.344 168.004 545.953 167.742 546.664 167.57C547.383 167.398 548.184 167.312 549.066 167.312H551.434V166.316C551.434 165.934 551.363 165.59 551.223 165.285C551.082 164.98 550.883 164.723 550.625 164.512C550.367 164.293 550.051 164.125 549.676 164.008C549.309 163.891 548.895 163.832 548.434 163.832C548.004 163.832 547.617 163.887 547.273 163.996C546.938 164.105 546.652 164.25 546.418 164.43C546.184 164.609 546 164.824 545.867 165.074C545.742 165.316 545.68 165.57 545.68 165.836H543.5C543.508 165.375 543.625 164.922 543.852 164.477C544.086 164.031 544.418 163.633 544.848 163.281C545.285 162.922 545.812 162.633 546.43 162.414C547.055 162.195 547.762 162.086 548.551 162.086C549.27 162.086 549.938 162.176 550.555 162.355C551.172 162.527 551.703 162.793 552.148 163.152C552.602 163.504 552.957 163.945 553.215 164.477C553.473 165.008 553.602 165.629 553.602 166.34V172.234C553.602 172.656 553.641 173.105 553.719 173.582C553.797 174.051 553.906 174.461 554.047 174.812V175H551.785ZM547.953 173.348C548.375 173.348 548.77 173.293 549.137 173.184C549.504 173.074 549.836 172.93 550.133 172.75C550.438 172.57 550.699 172.367 550.918 172.141C551.137 171.906 551.309 171.664 551.434 171.414V168.848H549.418C548.152 168.848 547.168 169.035 546.465 169.41C545.762 169.785 545.41 170.375 545.41 171.18C545.41 171.492 545.461 171.781 545.562 172.047C545.672 172.312 545.832 172.543 546.043 172.738C546.254 172.926 546.52 173.074 546.84 173.184C547.16 173.293 547.531 173.348 547.953 173.348ZM558.863 162.32L558.922 163.516C559.18 163.07 559.516 162.723 559.93 162.473C560.352 162.223 560.859 162.094 561.453 162.086C562.617 162.086 563.395 162.539 563.785 163.445C564.035 163.039 564.363 162.715 564.77 162.473C565.184 162.223 565.684 162.094 566.27 162.086C567.199 162.086 567.914 162.371 568.414 162.941C568.914 163.512 569.164 164.375 569.164 165.531V175H567.102V165.508C567.102 164.445 566.613 163.918 565.637 163.926C565.379 163.926 565.156 163.961 564.969 164.031C564.781 164.102 564.625 164.199 564.5 164.324C564.375 164.441 564.277 164.582 564.207 164.746C564.137 164.902 564.09 165.066 564.066 165.238V175H562.004V165.496C562.004 164.988 561.891 164.598 561.664 164.324C561.438 164.051 561.078 163.918 560.586 163.926C560.133 163.926 559.781 164.016 559.531 164.195C559.281 164.375 559.098 164.613 558.98 164.91V175H556.918V162.32H558.863ZM582.98 168.801C582.98 169.707 582.871 170.555 582.652 171.344C582.434 172.125 582.113 172.805 581.691 173.383C581.27 173.961 580.746 174.414 580.121 174.742C579.504 175.07 578.797 175.234 578 175.234C577.227 175.234 576.543 175.109 575.949 174.859C575.363 174.609 574.859 174.25 574.438 173.781V179.875H572.27V162.32H574.25L574.355 163.703C574.777 163.18 575.285 162.781 575.879 162.508C576.48 162.227 577.176 162.086 577.965 162.086C578.777 162.086 579.496 162.246 580.121 162.566C580.746 162.887 581.27 163.332 581.691 163.902C582.113 164.473 582.434 165.156 582.652 165.953C582.871 166.742 582.98 167.609 582.98 168.555V168.801ZM580.812 168.555C580.812 167.938 580.742 167.352 580.602 166.797C580.469 166.234 580.258 165.742 579.969 165.32C579.688 164.891 579.328 164.551 578.891 164.301C578.453 164.051 577.93 163.926 577.32 163.926C576.625 163.926 576.039 164.09 575.562 164.418C575.094 164.738 574.719 165.152 574.438 165.66V171.766C574.719 172.266 575.094 172.676 575.562 172.996C576.031 173.309 576.625 173.465 577.344 173.465C577.945 173.465 578.465 173.34 578.902 173.09C579.34 172.832 579.699 172.488 579.98 172.059C580.262 171.629 580.469 171.133 580.602 170.57C580.742 170.008 580.812 169.418 580.812 168.801V168.555ZM594.922 173.254C594.5 173.879 593.973 174.367 593.34 174.719C592.707 175.062 591.977 175.234 591.148 175.234C590.484 175.234 589.883 175.133 589.344 174.93C588.805 174.719 588.344 174.395 587.961 173.957C587.578 173.52 587.281 172.965 587.07 172.293C586.867 171.613 586.766 170.801 586.766 169.855V162.32H588.934V169.879C588.934 170.566 588.988 171.137 589.098 171.59C589.207 172.043 589.371 172.406 589.59 172.68C589.809 172.945 590.074 173.133 590.387 173.242C590.707 173.352 591.074 173.406 591.488 173.406C592.371 173.406 593.082 173.227 593.621 172.867C594.168 172.508 594.574 172.023 594.84 171.414V162.32H597.02V175H595.051L594.922 173.254ZM609.535 171.637C609.535 171.379 609.484 171.148 609.383 170.945C609.281 170.734 609.109 170.543 608.867 170.371C608.625 170.199 608.305 170.043 607.906 169.902C607.508 169.754 607.012 169.621 606.418 169.504C605.691 169.355 605.027 169.176 604.426 168.965C603.832 168.754 603.32 168.504 602.891 168.215C602.469 167.918 602.141 167.574 601.906 167.184C601.672 166.785 601.555 166.324 601.555 165.801C601.555 165.285 601.676 164.805 601.918 164.359C602.16 163.906 602.5 163.512 602.938 163.176C603.375 162.84 603.895 162.574 604.496 162.379C605.105 162.184 605.773 162.086 606.5 162.086C607.281 162.086 607.984 162.188 608.609 162.391C609.234 162.594 609.766 162.875 610.203 163.234C610.641 163.594 610.977 164.016 611.211 164.5C611.453 164.977 611.574 165.492 611.574 166.047H609.406C609.406 165.773 609.336 165.508 609.195 165.25C609.055 164.984 608.859 164.75 608.609 164.547C608.359 164.344 608.055 164.18 607.695 164.055C607.344 163.93 606.945 163.867 606.5 163.867C606.039 163.867 605.633 163.918 605.281 164.02C604.938 164.121 604.648 164.258 604.414 164.43C604.188 164.602 604.016 164.801 603.898 165.027C603.781 165.254 603.723 165.488 603.723 165.73C603.723 165.98 603.77 166.203 603.863 166.398C603.957 166.594 604.117 166.77 604.344 166.926C604.578 167.082 604.887 167.223 605.27 167.348C605.66 167.473 606.152 167.594 606.746 167.711C607.527 167.875 608.227 168.066 608.844 168.285C609.461 168.496 609.98 168.754 610.402 169.059C610.824 169.355 611.145 169.703 611.363 170.102C611.59 170.5 611.703 170.961 611.703 171.484C611.703 172.047 611.574 172.559 611.316 173.02C611.066 173.48 610.715 173.875 610.262 174.203C609.809 174.531 609.266 174.785 608.633 174.965C608 175.145 607.309 175.234 606.559 175.234C605.699 175.234 604.934 175.121 604.262 174.895C603.59 174.66 603.02 174.355 602.551 173.98C602.09 173.598 601.734 173.156 601.484 172.656C601.242 172.156 601.121 171.637 601.121 171.098H603.289C603.32 171.543 603.438 171.918 603.641 172.223C603.852 172.527 604.109 172.773 604.414 172.961C604.727 173.148 605.07 173.281 605.445 173.359C605.82 173.438 606.191 173.477 606.559 173.477C607.473 173.477 608.195 173.309 608.727 172.973C609.258 172.637 609.527 172.191 609.535 171.637ZM621.125 175.234C620.234 175.234 619.414 175.082 618.664 174.777C617.922 174.473 617.285 174.047 616.754 173.5C616.223 172.953 615.809 172.305 615.512 171.555C615.215 170.805 615.066 169.988 615.066 169.105V168.613C615.066 167.59 615.23 166.676 615.559 165.871C615.887 165.059 616.32 164.375 616.859 163.82C617.406 163.258 618.023 162.828 618.711 162.531C619.406 162.234 620.117 162.086 620.844 162.086C621.758 162.086 622.555 162.246 623.234 162.566C623.922 162.879 624.492 163.316 624.945 163.879C625.398 164.434 625.734 165.09 625.953 165.848C626.18 166.605 626.293 167.426 626.293 168.309V169.281H617.234C617.258 169.859 617.367 170.402 617.562 170.91C617.766 171.418 618.039 171.863 618.383 172.246C618.734 172.621 619.152 172.918 619.637 173.137C620.121 173.355 620.656 173.465 621.242 173.465C622.016 173.465 622.703 173.309 623.305 172.996C623.906 172.684 624.406 172.27 624.805 171.754L626.129 172.785C625.918 173.105 625.652 173.414 625.332 173.711C625.02 174 624.656 174.258 624.242 174.484C623.828 174.711 623.359 174.891 622.836 175.023C622.312 175.164 621.742 175.234 621.125 175.234ZM620.844 163.867C620.406 163.867 619.992 163.949 619.602 164.113C619.211 164.27 618.859 164.504 618.547 164.816C618.234 165.121 617.969 165.5 617.75 165.953C617.539 166.398 617.391 166.914 617.305 167.5H624.125V167.336C624.102 166.914 624.02 166.496 623.879 166.082C623.746 165.668 623.547 165.297 623.281 164.969C623.016 164.641 622.68 164.375 622.273 164.172C621.875 163.969 621.398 163.867 620.844 163.867ZM638.363 171.637C638.363 171.379 638.312 171.148 638.211 170.945C638.109 170.734 637.938 170.543 637.695 170.371C637.453 170.199 637.133 170.043 636.734 169.902C636.336 169.754 635.84 169.621 635.246 169.504C634.52 169.355 633.855 169.176 633.254 168.965C632.66 168.754 632.148 168.504 631.719 168.215C631.297 167.918 630.969 167.574 630.734 167.184C630.5 166.785 630.383 166.324 630.383 165.801C630.383 165.285 630.504 164.805 630.746 164.359C630.988 163.906 631.328 163.512 631.766 163.176C632.203 162.84 632.723 162.574 633.324 162.379C633.934 162.184 634.602 162.086 635.328 162.086C636.109 162.086 636.812 162.188 637.438 162.391C638.062 162.594 638.594 162.875 639.031 163.234C639.469 163.594 639.805 164.016 640.039 164.5C640.281 164.977 640.402 165.492 640.402 166.047H638.234C638.234 165.773 638.164 165.508 638.023 165.25C637.883 164.984 637.688 164.75 637.438 164.547C637.188 164.344 636.883 164.18 636.523 164.055C636.172 163.93 635.773 163.867 635.328 163.867C634.867 163.867 634.461 163.918 634.109 164.02C633.766 164.121 633.477 164.258 633.242 164.43C633.016 164.602 632.844 164.801 632.727 165.027C632.609 165.254 632.551 165.488 632.551 165.73C632.551 165.98 632.598 166.203 632.691 166.398C632.785 166.594 632.945 166.77 633.172 166.926C633.406 167.082 633.715 167.223 634.098 167.348C634.488 167.473 634.98 167.594 635.574 167.711C636.355 167.875 637.055 168.066 637.672 168.285C638.289 168.496 638.809 168.754 639.23 169.059C639.652 169.355 639.973 169.703 640.191 170.102C640.418 170.5 640.531 170.961 640.531 171.484C640.531 172.047 640.402 172.559 640.145 173.02C639.895 173.48 639.543 173.875 639.09 174.203C638.637 174.531 638.094 174.785 637.461 174.965C636.828 175.145 636.137 175.234 635.387 175.234C634.527 175.234 633.762 175.121 633.09 174.895C632.418 174.66 631.848 174.355 631.379 173.98C630.918 173.598 630.562 173.156 630.312 172.656C630.07 172.156 629.949 171.637 629.949 171.098H632.117C632.148 171.543 632.266 171.918 632.469 172.223C632.68 172.527 632.938 172.773 633.242 172.961C633.555 173.148 633.898 173.281 634.273 173.359C634.648 173.438 635.02 173.477 635.387 173.477C636.301 173.477 637.023 173.309 637.555 172.973C638.086 172.637 638.355 172.191 638.363 171.637Z" fill="black"/>
<path d="M527 177.609H642.301V178.781H527V177.609Z" fill="black"/>
</g>
</g>
<path id="Campus Name" d="M284.625 260.734C284.422 262.313 284.016 263.766 283.406 265.094C282.797 266.406 282 267.539 281.016 268.492C280.047 269.43 278.891 270.164 277.547 270.695C276.219 271.211 274.734 271.469 273.094 271.469C271.688 271.469 270.406 271.273 269.25 270.883C268.109 270.477 267.086 269.922 266.18 269.219C265.289 268.516 264.516 267.688 263.859 266.734C263.219 265.781 262.68 264.742 262.242 263.617C261.82 262.492 261.5 261.312 261.281 260.078C261.078 258.844 260.969 257.594 260.953 256.328V251.57C260.969 250.305 261.078 249.055 261.281 247.82C261.5 246.586 261.82 245.406 262.242 244.281C262.68 243.156 263.219 242.117 263.859 241.164C264.516 240.195 265.289 239.359 266.18 238.656C267.086 237.953 268.109 237.406 269.25 237.016C270.391 236.609 271.672 236.406 273.094 236.406C274.797 236.406 276.32 236.672 277.664 237.203C279.008 237.719 280.164 238.461 281.133 239.43C282.102 240.383 282.875 241.531 283.453 242.875C284.047 244.219 284.438 245.703 284.625 247.328H280.289C280.148 246.297 279.906 245.336 279.562 244.445C279.219 243.555 278.758 242.773 278.18 242.102C277.602 241.43 276.891 240.906 276.047 240.531C275.219 240.141 274.234 239.945 273.094 239.945C272.062 239.945 271.148 240.117 270.352 240.461C269.57 240.789 268.891 241.242 268.312 241.82C267.75 242.398 267.273 243.07 266.883 243.836C266.508 244.602 266.203 245.414 265.969 246.273C265.734 247.133 265.562 248.016 265.453 248.922C265.359 249.812 265.312 250.68 265.312 251.523V256.328C265.312 257.172 265.359 258.047 265.453 258.953C265.562 259.844 265.734 260.727 265.969 261.602C266.203 262.461 266.508 263.273 266.883 264.039C267.258 264.805 267.734 265.484 268.312 266.078C268.891 266.656 269.57 267.117 270.352 267.461C271.133 267.789 272.047 267.953 273.094 267.953C274.234 267.953 275.219 267.773 276.047 267.414C276.891 267.055 277.602 266.555 278.18 265.914C278.758 265.258 279.219 264.492 279.562 263.617C279.906 262.727 280.148 261.766 280.289 260.734H284.625ZM308.016 271C307.844 270.672 307.703 270.266 307.594 269.781C307.5 269.281 307.43 268.766 307.383 268.234C306.945 268.672 306.453 269.086 305.906 269.477C305.375 269.867 304.781 270.211 304.125 270.508C303.484 270.805 302.797 271.039 302.062 271.211C301.328 271.383 300.547 271.469 299.719 271.469C298.375 271.469 297.156 271.273 296.062 270.883C294.984 270.492 294.062 269.969 293.297 269.312C292.547 268.641 291.961 267.852 291.539 266.945C291.133 266.023 290.93 265.031 290.93 263.969C290.93 262.578 291.203 261.359 291.75 260.312C292.312 259.266 293.102 258.398 294.117 257.711C295.133 257.008 296.352 256.484 297.773 256.141C299.211 255.797 300.813 255.625 302.578 255.625H307.312V253.633C307.312 252.867 307.172 252.18 306.891 251.57C306.609 250.961 306.211 250.445 305.695 250.023C305.18 249.586 304.547 249.25 303.797 249.016C303.063 248.781 302.234 248.664 301.312 248.664C300.453 248.664 299.68 248.773 298.992 248.992C298.32 249.211 297.75 249.5 297.281 249.859C296.812 250.219 296.445 250.648 296.18 251.148C295.93 251.633 295.805 252.141 295.805 252.672H291.445C291.461 251.75 291.695 250.844 292.148 249.953C292.617 249.062 293.281 248.266 294.141 247.562C295.016 246.844 296.07 246.266 297.305 245.828C298.555 245.391 299.969 245.172 301.547 245.172C302.984 245.172 304.32 245.352 305.555 245.711C306.789 246.055 307.852 246.586 308.742 247.305C309.648 248.008 310.359 248.891 310.875 249.953C311.391 251.016 311.648 252.258 311.648 253.68V265.469C311.648 266.312 311.727 267.211 311.883 268.164C312.039 269.102 312.258 269.922 312.539 270.625V271H308.016ZM300.352 267.695C301.195 267.695 301.984 267.586 302.719 267.367C303.453 267.148 304.117 266.859 304.711 266.5C305.32 266.141 305.844 265.734 306.281 265.281C306.719 264.812 307.062 264.328 307.312 263.828V258.695H303.281C300.75 258.695 298.781 259.07 297.375 259.82C295.969 260.57 295.266 261.75 295.266 263.359C295.266 263.984 295.367 264.563 295.57 265.094C295.789 265.625 296.109 266.086 296.531 266.477C296.953 266.852 297.484 267.148 298.125 267.367C298.766 267.586 299.508 267.695 300.352 267.695ZM322.172 245.641L322.289 248.031C322.805 247.141 323.477 246.445 324.305 245.945C325.148 245.445 326.164 245.187 327.352 245.172C329.68 245.172 331.234 246.078 332.016 247.891C332.516 247.078 333.172 246.43 333.984 245.945C334.812 245.445 335.812 245.187 336.984 245.172C338.844 245.172 340.273 245.742 341.273 246.883C342.273 248.023 342.773 249.75 342.773 252.062V271H338.648V252.016C338.648 249.891 337.672 248.836 335.719 248.852C335.203 248.852 334.758 248.922 334.383 249.062C334.008 249.203 333.695 249.398 333.445 249.648C333.195 249.883 333 250.164 332.859 250.492C332.719 250.805 332.625 251.133 332.578 251.477V271H328.453V251.992C328.453 250.977 328.227 250.195 327.773 249.648C327.32 249.102 326.602 248.836 325.617 248.852C324.711 248.852 324.008 249.031 323.508 249.391C323.008 249.75 322.641 250.227 322.406 250.82V271H318.281V245.641H322.172ZM370.406 258.602C370.406 260.414 370.187 262.109 369.75 263.688C369.313 265.25 368.672 266.609 367.828 267.766C366.984 268.922 365.937 269.828 364.688 270.484C363.453 271.141 362.039 271.469 360.445 271.469C358.898 271.469 357.531 271.219 356.344 270.719C355.172 270.219 354.164 269.5 353.32 268.562V280.75H348.984V245.641H352.945L353.156 248.406C354 247.359 355.016 246.563 356.203 246.016C357.406 245.453 358.797 245.172 360.375 245.172C362 245.172 363.438 245.492 364.688 246.133C365.937 246.773 366.984 247.664 367.828 248.805C368.672 249.945 369.313 251.312 369.75 252.906C370.187 254.484 370.406 256.219 370.406 258.109V258.602ZM366.07 258.109C366.07 256.875 365.93 255.703 365.648 254.594C365.383 253.469 364.961 252.484 364.383 251.641C363.82 250.781 363.102 250.102 362.227 249.602C361.352 249.102 360.305 248.852 359.086 248.852C357.695 248.852 356.523 249.18 355.57 249.836C354.633 250.477 353.883 251.305 353.32 252.32V264.531C353.883 265.531 354.633 266.352 355.57 266.992C356.508 267.617 357.695 267.93 359.133 267.93C360.336 267.93 361.375 267.68 362.25 267.18C363.125 266.664 363.844 265.977 364.406 265.117C364.969 264.258 365.383 263.266 365.648 262.141C365.93 261.016 366.07 259.836 366.07 258.602V258.109ZM394.289 267.508C393.445 268.758 392.391 269.734 391.125 270.438C389.859 271.125 388.398 271.469 386.742 271.469C385.414 271.469 384.211 271.266 383.133 270.859C382.055 270.438 381.133 269.789 380.367 268.914C379.602 268.039 379.008 266.93 378.586 265.586C378.18 264.227 377.977 262.602 377.977 260.711V245.641H382.312V260.758C382.312 262.133 382.422 263.273 382.641 264.18C382.859 265.086 383.188 265.813 383.625 266.359C384.062 266.891 384.594 267.266 385.219 267.484C385.859 267.703 386.594 267.812 387.422 267.812C389.187 267.812 390.609 267.453 391.688 266.734C392.781 266.016 393.594 265.047 394.125 263.828V245.641H398.484V271H394.547L394.289 267.508ZM423.516 264.273C423.516 263.758 423.414 263.297 423.211 262.891C423.008 262.469 422.664 262.086 422.18 261.742C421.695 261.398 421.055 261.086 420.258 260.805C419.461 260.508 418.469 260.242 417.281 260.008C415.828 259.711 414.5 259.352 413.297 258.93C412.109 258.508 411.086 258.008 410.227 257.43C409.383 256.836 408.727 256.148 408.258 255.367C407.789 254.57 407.555 253.648 407.555 252.602C407.555 251.57 407.797 250.609 408.281 249.719C408.766 248.812 409.445 248.023 410.32 247.352C411.195 246.68 412.234 246.148 413.438 245.758C414.656 245.367 415.992 245.172 417.445 245.172C419.008 245.172 420.414 245.375 421.664 245.781C422.914 246.188 423.977 246.75 424.852 247.469C425.727 248.188 426.398 249.031 426.867 250C427.352 250.953 427.594 251.984 427.594 253.094H423.258C423.258 252.547 423.117 252.016 422.836 251.5C422.555 250.969 422.164 250.5 421.664 250.094C421.164 249.688 420.555 249.359 419.836 249.109C419.133 248.859 418.336 248.734 417.445 248.734C416.523 248.734 415.711 248.836 415.008 249.039C414.32 249.242 413.742 249.516 413.273 249.859C412.82 250.203 412.477 250.602 412.242 251.055C412.008 251.508 411.891 251.977 411.891 252.461C411.891 252.961 411.984 253.406 412.172 253.797C412.359 254.188 412.68 254.539 413.133 254.852C413.602 255.164 414.219 255.445 414.984 255.695C415.766 255.945 416.75 256.188 417.938 256.422C419.5 256.75 420.898 257.133 422.133 257.57C423.367 257.992 424.406 258.508 425.25 259.117C426.094 259.711 426.734 260.406 427.172 261.203C427.625 262 427.852 262.922 427.852 263.969C427.852 265.094 427.594 266.117 427.078 267.039C426.578 267.961 425.875 268.75 424.969 269.406C424.062 270.062 422.977 270.57 421.711 270.93C420.445 271.289 419.062 271.469 417.562 271.469C415.844 271.469 414.313 271.242 412.969 270.789C411.625 270.32 410.484 269.711 409.547 268.961C408.625 268.195 407.914 267.313 407.414 266.312C406.93 265.312 406.688 264.273 406.688 263.195H411.023C411.086 264.086 411.32 264.836 411.727 265.445C412.148 266.055 412.664 266.547 413.273 266.922C413.898 267.297 414.586 267.562 415.336 267.719C416.086 267.875 416.828 267.953 417.562 267.953C419.391 267.953 420.836 267.617 421.898 266.945C422.961 266.273 423.5 265.383 423.516 264.273ZM485.695 271H481.289L468.047 245.5L467.977 271H463.594V236.875H468L481.242 262.328L481.312 236.875H485.695V271ZM509.812 271C509.641 270.672 509.5 270.266 509.391 269.781C509.297 269.281 509.227 268.766 509.18 268.234C508.742 268.672 508.25 269.086 507.703 269.477C507.172 269.867 506.578 270.211 505.922 270.508C505.281 270.805 504.594 271.039 503.859 271.211C503.125 271.383 502.344 271.469 501.516 271.469C500.172 271.469 498.953 271.273 497.859 270.883C496.781 270.492 495.859 269.969 495.094 269.312C494.344 268.641 493.758 267.852 493.336 266.945C492.93 266.023 492.727 265.031 492.727 263.969C492.727 262.578 493 261.359 493.547 260.312C494.109 259.266 494.898 258.398 495.914 257.711C496.93 257.008 498.148 256.484 499.57 256.141C501.008 255.797 502.609 255.625 504.375 255.625H509.109V253.633C509.109 252.867 508.969 252.18 508.688 251.57C508.406 250.961 508.008 250.445 507.492 250.023C506.977 249.586 506.344 249.25 505.594 249.016C504.859 248.781 504.031 248.664 503.109 248.664C502.25 248.664 501.477 248.773 500.789 248.992C500.117 249.211 499.547 249.5 499.078 249.859C498.609 250.219 498.242 250.648 497.977 251.148C497.727 251.633 497.602 252.141 497.602 252.672H493.242C493.258 251.75 493.492 250.844 493.945 249.953C494.414 249.062 495.078 248.266 495.938 247.562C496.813 246.844 497.867 246.266 499.102 245.828C500.352 245.391 501.766 245.172 503.344 245.172C504.781 245.172 506.117 245.352 507.352 245.711C508.586 246.055 509.648 246.586 510.539 247.305C511.445 248.008 512.156 248.891 512.672 249.953C513.188 251.016 513.445 252.258 513.445 253.68V265.469C513.445 266.312 513.523 267.211 513.68 268.164C513.836 269.102 514.055 269.922 514.336 270.625V271H509.812ZM502.148 267.695C502.992 267.695 503.781 267.586 504.516 267.367C505.25 267.148 505.914 266.859 506.508 266.5C507.117 266.141 507.641 265.734 508.078 265.281C508.516 264.812 508.859 264.328 509.109 263.828V258.695H505.078C502.547 258.695 500.578 259.07 499.172 259.82C497.766 260.57 497.062 261.75 497.062 263.359C497.062 263.984 497.164 264.563 497.367 265.094C497.586 265.625 497.906 266.086 498.328 266.477C498.75 266.852 499.281 267.148 499.922 267.367C500.563 267.586 501.305 267.695 502.148 267.695ZM523.969 245.641L524.086 248.031C524.602 247.141 525.273 246.445 526.102 245.945C526.945 245.445 527.961 245.187 529.148 245.172C531.477 245.172 533.031 246.078 533.812 247.891C534.312 247.078 534.969 246.43 535.781 245.945C536.609 245.445 537.609 245.187 538.781 245.172C540.641 245.172 542.07 245.742 543.07 246.883C544.07 248.023 544.57 249.75 544.57 252.062V271H540.445V252.016C540.445 249.891 539.469 248.836 537.516 248.852C537 248.852 536.555 248.922 536.18 249.062C535.805 249.203 535.492 249.398 535.242 249.648C534.992 249.883 534.797 250.164 534.656 250.492C534.516 250.805 534.422 251.133 534.375 251.477V271H530.25V251.992C530.25 250.977 530.023 250.195 529.57 249.648C529.117 249.102 528.398 248.836 527.414 248.852C526.508 248.852 525.805 249.031 525.305 249.391C524.805 249.75 524.438 250.227 524.203 250.82V271H520.078V245.641H523.969ZM562.008 271.469C560.227 271.469 558.586 271.164 557.086 270.555C555.602 269.945 554.328 269.094 553.266 268C552.203 266.906 551.375 265.609 550.781 264.109C550.188 262.609 549.891 260.977 549.891 259.211V258.227C549.891 256.18 550.219 254.352 550.875 252.742C551.531 251.117 552.398 249.75 553.477 248.641C554.57 247.516 555.805 246.656 557.18 246.062C558.57 245.469 559.992 245.172 561.445 245.172C563.273 245.172 564.867 245.492 566.227 246.133C567.602 246.758 568.742 247.633 569.648 248.758C570.555 249.867 571.227 251.18 571.664 252.695C572.117 254.211 572.344 255.852 572.344 257.617V259.562H554.227C554.273 260.719 554.492 261.805 554.883 262.82C555.289 263.836 555.836 264.727 556.523 265.492C557.227 266.242 558.062 266.836 559.031 267.273C560 267.711 561.07 267.93 562.242 267.93C563.789 267.93 565.164 267.617 566.367 266.992C567.57 266.367 568.57 265.539 569.367 264.508L572.016 266.57C571.594 267.211 571.063 267.828 570.422 268.422C569.797 269 569.07 269.516 568.242 269.969C567.414 270.422 566.477 270.781 565.43 271.047C564.383 271.328 563.242 271.469 562.008 271.469ZM561.445 248.734C560.57 248.734 559.742 248.898 558.961 249.227C558.18 249.539 557.477 250.008 556.852 250.633C556.227 251.242 555.695 252 555.258 252.906C554.836 253.797 554.539 254.828 554.367 256H568.008V255.672C567.961 254.828 567.797 253.992 567.516 253.164C567.25 252.336 566.852 251.594 566.32 250.938C565.789 250.281 565.117 249.75 564.305 249.344C563.508 248.938 562.555 248.734 561.445 248.734Z" fill="black"/>
<g id="Text Input">
<rect id="Rectangle_2" x="155.5" y="304.5" width="489" height="61" fill="#FAFAFA" stroke="black"/>
</g>
<g id="Add Campus">
<rect id="Rectangle_3" x="300" y="397" width="198" height="47" rx="15" fill="#30CDFF"/>
<path id="Add Campus_2" d="M338.113 424.582H332.418L331.047 429H328.879L334.387 411.938H336.203L341.617 429H339.461L338.113 424.582ZM333.004 422.695H337.539L335.289 415.289L333.004 422.695ZM343.973 422.555C343.973 421.609 344.09 420.742 344.324 419.953C344.566 419.156 344.906 418.473 345.344 417.902C345.789 417.332 346.324 416.887 346.949 416.566C347.574 416.246 348.273 416.086 349.047 416.086C349.805 416.086 350.465 416.215 351.027 416.473C351.598 416.723 352.09 417.09 352.504 417.574V411H354.672V429H352.68L352.586 427.664C352.164 428.18 351.66 428.57 351.074 428.836C350.488 429.102 349.805 429.234 349.023 429.234C348.258 429.234 347.562 429.07 346.938 428.742C346.32 428.414 345.793 427.961 345.355 427.383C344.918 426.805 344.578 426.125 344.336 425.344C344.094 424.555 343.973 423.707 343.973 422.801V422.555ZM346.141 422.801C346.141 423.418 346.207 424.004 346.34 424.559C346.473 425.113 346.676 425.602 346.949 426.023C347.23 426.445 347.586 426.781 348.016 427.031C348.445 427.273 348.961 427.395 349.562 427.395C349.93 427.395 350.262 427.352 350.559 427.266C350.855 427.18 351.125 427.059 351.367 426.902C351.609 426.738 351.824 426.547 352.012 426.328C352.199 426.102 352.363 425.852 352.504 425.578V419.695C352.223 419.18 351.844 418.758 351.367 418.43C350.891 418.094 350.297 417.926 349.586 417.926C348.977 417.926 348.453 418.051 348.016 418.301C347.586 418.551 347.23 418.891 346.949 419.32C346.676 419.742 346.473 420.234 346.34 420.797C346.207 421.352 346.141 421.938 346.141 422.555V422.801ZM358.387 422.555C358.387 421.609 358.504 420.742 358.738 419.953C358.98 419.156 359.32 418.473 359.758 417.902C360.203 417.332 360.738 416.887 361.363 416.566C361.988 416.246 362.688 416.086 363.461 416.086C364.219 416.086 364.879 416.215 365.441 416.473C366.012 416.723 366.504 417.09 366.918 417.574V411H369.086V429H367.094L367 427.664C366.578 428.18 366.074 428.57 365.488 428.836C364.902 429.102 364.219 429.234 363.438 429.234C362.672 429.234 361.977 429.07 361.352 428.742C360.734 428.414 360.207 427.961 359.77 427.383C359.332 426.805 358.992 426.125 358.75 425.344C358.508 424.555 358.387 423.707 358.387 422.801V422.555ZM360.555 422.801C360.555 423.418 360.621 424.004 360.754 424.559C360.887 425.113 361.09 425.602 361.363 426.023C361.645 426.445 362 426.781 362.43 427.031C362.859 427.273 363.375 427.395 363.977 427.395C364.344 427.395 364.676 427.352 364.973 427.266C365.27 427.18 365.539 427.059 365.781 426.902C366.023 426.738 366.238 426.547 366.426 426.328C366.613 426.102 366.777 425.852 366.918 425.578V419.695C366.637 419.18 366.258 418.758 365.781 418.43C365.305 418.094 364.711 417.926 364 417.926C363.391 417.926 362.867 418.051 362.43 418.301C362 418.551 361.645 418.891 361.363 419.32C361.09 419.742 360.887 420.234 360.754 420.797C360.621 421.352 360.555 421.938 360.555 422.555V422.801ZM398.676 423.867C398.574 424.656 398.371 425.383 398.066 426.047C397.762 426.703 397.363 427.27 396.871 427.746C396.387 428.215 395.809 428.582 395.137 428.848C394.473 429.105 393.73 429.234 392.91 429.234C392.207 429.234 391.566 429.137 390.988 428.941C390.418 428.738 389.906 428.461 389.453 428.109C389.008 427.758 388.621 427.344 388.293 426.867C387.973 426.391 387.703 425.871 387.484 425.309C387.273 424.746 387.113 424.156 387.004 423.539C386.902 422.922 386.848 422.297 386.84 421.664V419.285C386.848 418.652 386.902 418.027 387.004 417.41C387.113 416.793 387.273 416.203 387.484 415.641C387.703 415.078 387.973 414.559 388.293 414.082C388.621 413.598 389.008 413.18 389.453 412.828C389.906 412.477 390.418 412.203 390.988 412.008C391.559 411.805 392.199 411.703 392.91 411.703C393.762 411.703 394.523 411.836 395.195 412.102C395.867 412.359 396.445 412.73 396.93 413.215C397.414 413.691 397.801 414.266 398.09 414.938C398.387 415.609 398.582 416.352 398.676 417.164H396.508C396.438 416.648 396.316 416.168 396.145 415.723C395.973 415.277 395.742 414.887 395.453 414.551C395.164 414.215 394.809 413.953 394.387 413.766C393.973 413.57 393.48 413.473 392.91 413.473C392.395 413.473 391.938 413.559 391.539 413.73C391.148 413.895 390.809 414.121 390.52 414.41C390.238 414.699 390 415.035 389.805 415.418C389.617 415.801 389.465 416.207 389.348 416.637C389.23 417.066 389.145 417.508 389.09 417.961C389.043 418.406 389.02 418.84 389.02 419.262V421.664C389.02 422.086 389.043 422.523 389.09 422.977C389.145 423.422 389.23 423.863 389.348 424.301C389.465 424.73 389.617 425.137 389.805 425.52C389.992 425.902 390.23 426.242 390.52 426.539C390.809 426.828 391.148 427.059 391.539 427.23C391.93 427.395 392.387 427.477 392.91 427.477C393.48 427.477 393.973 427.387 394.387 427.207C394.809 427.027 395.164 426.777 395.453 426.457C395.742 426.129 395.973 425.746 396.145 425.309C396.316 424.863 396.438 424.383 396.508 423.867H398.676ZM410.371 429C410.285 428.836 410.215 428.633 410.16 428.391C410.113 428.141 410.078 427.883 410.055 427.617C409.836 427.836 409.59 428.043 409.316 428.238C409.051 428.434 408.754 428.605 408.426 428.754C408.105 428.902 407.762 429.02 407.395 429.105C407.027 429.191 406.637 429.234 406.223 429.234C405.551 429.234 404.941 429.137 404.395 428.941C403.855 428.746 403.395 428.484 403.012 428.156C402.637 427.82 402.344 427.426 402.133 426.973C401.93 426.512 401.828 426.016 401.828 425.484C401.828 424.789 401.965 424.18 402.238 423.656C402.52 423.133 402.914 422.699 403.422 422.355C403.93 422.004 404.539 421.742 405.25 421.57C405.969 421.398 406.77 421.312 407.652 421.312H410.02V420.316C410.02 419.934 409.949 419.59 409.809 419.285C409.668 418.98 409.469 418.723 409.211 418.512C408.953 418.293 408.637 418.125 408.262 418.008C407.895 417.891 407.48 417.832 407.02 417.832C406.59 417.832 406.203 417.887 405.859 417.996C405.523 418.105 405.238 418.25 405.004 418.43C404.77 418.609 404.586 418.824 404.453 419.074C404.328 419.316 404.266 419.57 404.266 419.836H402.086C402.094 419.375 402.211 418.922 402.438 418.477C402.672 418.031 403.004 417.633 403.434 417.281C403.871 416.922 404.398 416.633 405.016 416.414C405.641 416.195 406.348 416.086 407.137 416.086C407.855 416.086 408.523 416.176 409.141 416.355C409.758 416.527 410.289 416.793 410.734 417.152C411.188 417.504 411.543 417.945 411.801 418.477C412.059 419.008 412.188 419.629 412.188 420.34V426.234C412.188 426.656 412.227 427.105 412.305 427.582C412.383 428.051 412.492 428.461 412.633 428.812V429H410.371ZM406.539 427.348C406.961 427.348 407.355 427.293 407.723 427.184C408.09 427.074 408.422 426.93 408.719 426.75C409.023 426.57 409.285 426.367 409.504 426.141C409.723 425.906 409.895 425.664 410.02 425.414V422.848H408.004C406.738 422.848 405.754 423.035 405.051 423.41C404.348 423.785 403.996 424.375 403.996 425.18C403.996 425.492 404.047 425.781 404.148 426.047C404.258 426.312 404.418 426.543 404.629 426.738C404.84 426.926 405.105 427.074 405.426 427.184C405.746 427.293 406.117 427.348 406.539 427.348ZM417.449 416.32L417.508 417.516C417.766 417.07 418.102 416.723 418.516 416.473C418.938 416.223 419.445 416.094 420.039 416.086C421.203 416.086 421.98 416.539 422.371 417.445C422.621 417.039 422.949 416.715 423.355 416.473C423.77 416.223 424.27 416.094 424.855 416.086C425.785 416.086 426.5 416.371 427 416.941C427.5 417.512 427.75 418.375 427.75 419.531V429H425.688V419.508C425.688 418.445 425.199 417.918 424.223 417.926C423.965 417.926 423.742 417.961 423.555 418.031C423.367 418.102 423.211 418.199 423.086 418.324C422.961 418.441 422.863 418.582 422.793 418.746C422.723 418.902 422.676 419.066 422.652 419.238V429H420.59V419.496C420.59 418.988 420.477 418.598 420.25 418.324C420.023 418.051 419.664 417.918 419.172 417.926C418.719 417.926 418.367 418.016 418.117 418.195C417.867 418.375 417.684 418.613 417.566 418.91V429H415.504V416.32H417.449ZM441.566 422.801C441.566 423.707 441.457 424.555 441.238 425.344C441.02 426.125 440.699 426.805 440.277 427.383C439.855 427.961 439.332 428.414 438.707 428.742C438.09 429.07 437.383 429.234 436.586 429.234C435.812 429.234 435.129 429.109 434.535 428.859C433.949 428.609 433.445 428.25 433.023 427.781V433.875H430.855V416.32H432.836L432.941 417.703C433.363 417.18 433.871 416.781 434.465 416.508C435.066 416.227 435.762 416.086 436.551 416.086C437.363 416.086 438.082 416.246 438.707 416.566C439.332 416.887 439.855 417.332 440.277 417.902C440.699 418.473 441.02 419.156 441.238 419.953C441.457 420.742 441.566 421.609 441.566 422.555V422.801ZM439.398 422.555C439.398 421.938 439.328 421.352 439.188 420.797C439.055 420.234 438.844 419.742 438.555 419.32C438.273 418.891 437.914 418.551 437.477 418.301C437.039 418.051 436.516 417.926 435.906 417.926C435.211 417.926 434.625 418.09 434.148 418.418C433.68 418.738 433.305 419.152 433.023 419.66V425.766C433.305 426.266 433.68 426.676 434.148 426.996C434.617 427.309 435.211 427.465 435.93 427.465C436.531 427.465 437.051 427.34 437.488 427.09C437.926 426.832 438.285 426.488 438.566 426.059C438.848 425.629 439.055 425.133 439.188 424.57C439.328 424.008 439.398 423.418 439.398 422.801V422.555ZM453.508 427.254C453.086 427.879 452.559 428.367 451.926 428.719C451.293 429.062 450.562 429.234 449.734 429.234C449.07 429.234 448.469 429.133 447.93 428.93C447.391 428.719 446.93 428.395 446.547 427.957C446.164 427.52 445.867 426.965 445.656 426.293C445.453 425.613 445.352 424.801 445.352 423.855V416.32H447.52V423.879C447.52 424.566 447.574 425.137 447.684 425.59C447.793 426.043 447.957 426.406 448.176 426.68C448.395 426.945 448.66 427.133 448.973 427.242C449.293 427.352 449.66 427.406 450.074 427.406C450.957 427.406 451.668 427.227 452.207 426.867C452.754 426.508 453.16 426.023 453.426 425.414V416.32H455.605V429H453.637L453.508 427.254ZM468.121 425.637C468.121 425.379 468.07 425.148 467.969 424.945C467.867 424.734 467.695 424.543 467.453 424.371C467.211 424.199 466.891 424.043 466.492 423.902C466.094 423.754 465.598 423.621 465.004 423.504C464.277 423.355 463.613 423.176 463.012 422.965C462.418 422.754 461.906 422.504 461.477 422.215C461.055 421.918 460.727 421.574 460.492 421.184C460.258 420.785 460.141 420.324 460.141 419.801C460.141 419.285 460.262 418.805 460.504 418.359C460.746 417.906 461.086 417.512 461.523 417.176C461.961 416.84 462.48 416.574 463.082 416.379C463.691 416.184 464.359 416.086 465.086 416.086C465.867 416.086 466.57 416.188 467.195 416.391C467.82 416.594 468.352 416.875 468.789 417.234C469.227 417.594 469.562 418.016 469.797 418.5C470.039 418.977 470.16 419.492 470.16 420.047H467.992C467.992 419.773 467.922 419.508 467.781 419.25C467.641 418.984 467.445 418.75 467.195 418.547C466.945 418.344 466.641 418.18 466.281 418.055C465.93 417.93 465.531 417.867 465.086 417.867C464.625 417.867 464.219 417.918 463.867 418.02C463.523 418.121 463.234 418.258 463 418.43C462.773 418.602 462.602 418.801 462.484 419.027C462.367 419.254 462.309 419.488 462.309 419.73C462.309 419.98 462.355 420.203 462.449 420.398C462.543 420.594 462.703 420.77 462.93 420.926C463.164 421.082 463.473 421.223 463.855 421.348C464.246 421.473 464.738 421.594 465.332 421.711C466.113 421.875 466.812 422.066 467.43 422.285C468.047 422.496 468.566 422.754 468.988 423.059C469.41 423.355 469.73 423.703 469.949 424.102C470.176 424.5 470.289 424.961 470.289 425.484C470.289 426.047 470.16 426.559 469.902 427.02C469.652 427.48 469.301 427.875 468.848 428.203C468.395 428.531 467.852 428.785 467.219 428.965C466.586 429.145 465.895 429.234 465.145 429.234C464.285 429.234 463.52 429.121 462.848 428.895C462.176 428.66 461.605 428.355 461.137 427.98C460.676 427.598 460.32 427.156 460.07 426.656C459.828 426.156 459.707 425.637 459.707 425.098H461.875C461.906 425.543 462.023 425.918 462.227 426.223C462.438 426.527 462.695 426.773 463 426.961C463.312 427.148 463.656 427.281 464.031 427.359C464.406 427.438 464.777 427.477 465.145 427.477C466.059 427.477 466.781 427.309 467.312 426.973C467.844 426.637 468.113 426.191 468.121 425.637Z" fill="#F7FCFF"/>
</g>
<path id="New Campus Form_2" d="M86.3633 67H79.7539L59.8906 28.75L59.7852 67H53.2109V15.8125H59.8203L79.6836 53.9922L79.7891 15.8125H86.3633V67ZM114.348 67.7031C111.676 67.7031 109.215 67.2461 106.965 66.332C104.738 65.418 102.828 64.1406 101.234 62.5C99.6406 60.8594 98.3984 58.9141 97.5078 56.6641C96.6172 54.4141 96.1719 51.9648 96.1719 49.3164V47.8398C96.1719 44.7695 96.6641 42.0273 97.6484 39.6133C98.6328 37.1758 99.9336 35.125 101.551 33.4609C103.191 31.7734 105.043 30.4844 107.105 29.5938C109.191 28.7031 111.324 28.2578 113.504 28.2578C116.246 28.2578 118.637 28.7383 120.676 29.6992C122.738 30.6367 124.449 31.9492 125.809 33.6367C127.168 35.3008 128.176 37.2695 128.832 39.543C129.512 41.8164 129.852 44.2773 129.852 46.9258V49.8438H102.676C102.746 51.5781 103.074 53.207 103.66 54.7305C104.27 56.2539 105.09 57.5898 106.121 58.7383C107.176 59.8633 108.43 60.7539 109.883 61.4102C111.336 62.0664 112.941 62.3945 114.699 62.3945C117.02 62.3945 119.082 61.9258 120.887 60.9883C122.691 60.0508 124.191 58.8086 125.387 57.2617L129.359 60.3555C128.727 61.3164 127.93 62.2422 126.969 63.1328C126.031 64 124.941 64.7734 123.699 65.4531C122.457 66.1328 121.051 66.6719 119.48 67.0703C117.91 67.4922 116.199 67.7031 114.348 67.7031ZM113.504 33.6016C112.191 33.6016 110.949 33.8477 109.777 34.3398C108.605 34.8086 107.551 35.5117 106.613 36.4492C105.676 37.3633 104.879 38.5 104.223 39.8594C103.59 41.1953 103.145 42.7422 102.887 44.5H123.348V44.0078C123.277 42.7422 123.031 41.4883 122.609 40.2461C122.211 39.0039 121.613 37.8906 120.816 36.9062C120.02 35.9219 119.012 35.125 117.793 34.5156C116.598 33.9063 115.168 33.6016 113.504 33.6016ZM146.551 53.2188L147.324 58.668L148.273 53.2188L154.355 28.9609H158.539L164.586 53.2188L165.605 59.1953L166.555 53.2188L170.773 28.9609H176.539L168.453 67H163.32L157.379 43.6914L156.395 37.7852L155.445 43.6914L149.574 67H144.441L136.355 28.9609H142.121L146.551 53.2188ZM260.422 51.6016C260.117 53.9688 259.508 56.1484 258.594 58.1406C257.68 60.1094 256.484 61.8086 255.008 63.2383C253.555 64.6445 251.82 65.7461 249.805 66.543C247.812 67.3164 245.586 67.7031 243.125 67.7031C241.016 67.7031 239.094 67.4102 237.359 66.8242C235.648 66.2148 234.113 65.3828 232.754 64.3281C231.418 63.2734 230.258 62.0313 229.273 60.6016C228.313 59.1719 227.504 57.6133 226.848 55.9258C226.215 54.2383 225.734 52.4687 225.406 50.6172C225.102 48.7656 224.937 46.8906 224.914 44.9922V37.8555C224.937 35.957 225.102 34.082 225.406 32.2305C225.734 30.3789 226.215 28.6094 226.848 26.9219C227.504 25.2344 228.313 23.6758 229.273 22.2461C230.258 20.793 231.418 19.5391 232.754 18.4844C234.113 17.4297 235.648 16.6094 237.359 16.0234C239.07 15.4141 240.992 15.1094 243.125 15.1094C245.68 15.1094 247.965 15.5078 249.98 16.3047C251.996 17.0781 253.73 18.1914 255.184 19.6445C256.637 21.0742 257.797 22.7969 258.664 24.8125C259.555 26.8281 260.141 29.0547 260.422 31.4922H253.918C253.707 29.9453 253.344 28.5039 252.828 27.168C252.312 25.832 251.621 24.6602 250.754 23.6523C249.887 22.6445 248.82 21.8594 247.555 21.2969C246.313 20.7109 244.836 20.418 243.125 20.418C241.578 20.418 240.207 20.6758 239.012 21.1914C237.84 21.6836 236.82 22.3633 235.953 23.2305C235.109 24.0977 234.395 25.1055 233.809 26.2539C233.246 27.4023 232.789 28.6211 232.438 29.9102C232.086 31.1992 231.828 32.5234 231.664 33.8828C231.523 35.2188 231.453 36.5195 231.453 37.7852V44.9922C231.453 46.2578 231.523 47.5703 231.664 48.9297C231.828 50.2656 232.086 51.5898 232.438 52.9023C232.789 54.1914 233.246 55.4102 233.809 56.5586C234.371 57.707 235.086 58.7266 235.953 59.6172C236.82 60.4844 237.84 61.1758 239.012 61.6914C240.184 62.1836 241.555 62.4297 243.125 62.4297C244.836 62.4297 246.313 62.1602 247.555 61.6211C248.82 61.082 249.887 60.332 250.754 59.3711C251.621 58.3867 252.312 57.2383 252.828 55.9258C253.344 54.5898 253.707 53.1484 253.918 51.6016H260.422ZM295.508 67C295.25 66.5078 295.039 65.8984 294.875 65.1719C294.734 64.4219 294.629 63.6484 294.559 62.8516C293.902 63.5078 293.164 64.1289 292.344 64.7148C291.547 65.3008 290.656 65.8164 289.672 66.2617C288.711 66.707 287.68 67.0586 286.578 67.3164C285.477 67.5742 284.305 67.7031 283.062 67.7031C281.047 67.7031 279.219 67.4102 277.578 66.8242C275.961 66.2383 274.578 65.4531 273.43 64.4688C272.305 63.4609 271.426 62.2773 270.793 60.918C270.184 59.5352 269.879 58.0469 269.879 56.4531C269.879 54.3672 270.289 52.5391 271.109 50.9688C271.953 49.3984 273.137 48.0977 274.66 47.0664C276.184 46.0117 278.012 45.2266 280.145 44.7109C282.301 44.1953 284.703 43.9375 287.352 43.9375H294.453V40.9492C294.453 39.8008 294.242 38.7695 293.82 37.8555C293.398 36.9414 292.801 36.168 292.027 35.5352C291.254 34.8789 290.305 34.375 289.18 34.0234C288.078 33.6719 286.836 33.4961 285.453 33.4961C284.164 33.4961 283.004 33.6602 281.973 33.9883C280.965 34.3164 280.109 34.75 279.406 35.2891C278.703 35.8281 278.152 36.4727 277.754 37.2227C277.379 37.9492 277.191 38.7109 277.191 39.5078H270.652C270.676 38.125 271.027 36.7656 271.707 35.4297C272.41 34.0938 273.406 32.8984 274.695 31.8438C276.008 30.7656 277.59 29.8984 279.441 29.2422C281.316 28.5859 283.438 28.2578 285.805 28.2578C287.961 28.2578 289.965 28.5273 291.816 29.0664C293.668 29.582 295.262 30.3789 296.598 31.457C297.957 32.5117 299.023 33.8359 299.797 35.4297C300.57 37.0234 300.957 38.8867 300.957 41.0195V58.7031C300.957 59.9688 301.074 61.3164 301.309 62.7461C301.543 64.1523 301.871 65.3828 302.293 66.4375V67H295.508ZM284.012 62.043C285.277 62.043 286.461 61.8789 287.562 61.5508C288.664 61.2227 289.66 60.7891 290.551 60.25C291.465 59.7109 292.25 59.1016 292.906 58.4219C293.563 57.7188 294.078 56.9922 294.453 56.2422V48.543H288.406C284.609 48.543 281.656 49.1055 279.547 50.2305C277.438 51.3555 276.383 53.125 276.383 55.5391C276.383 56.4766 276.535 57.3438 276.84 58.1406C277.168 58.9375 277.648 59.6289 278.281 60.2148C278.914 60.7773 279.711 61.2227 280.672 61.5508C281.633 61.8789 282.746 62.043 284.012 62.043ZM316.742 28.9609L316.918 32.5469C317.691 31.2109 318.699 30.168 319.941 29.418C321.207 28.668 322.73 28.2812 324.512 28.2578C328.004 28.2578 330.336 29.6172 331.508 32.3359C332.258 31.1172 333.242 30.1445 334.461 29.418C335.703 28.668 337.203 28.2812 338.961 28.2578C341.75 28.2578 343.895 29.1133 345.395 30.8242C346.895 32.5352 347.645 35.125 347.645 38.5938V67H341.457V38.5234C341.457 35.3359 339.992 33.7539 337.062 33.7773C336.289 33.7773 335.621 33.8828 335.059 34.0938C334.496 34.3047 334.027 34.5977 333.652 34.9727C333.277 35.3242 332.984 35.7461 332.773 36.2383C332.562 36.707 332.422 37.1992 332.352 37.7148V67H326.164V38.4883C326.164 36.9648 325.824 35.793 325.145 34.9727C324.465 34.1523 323.387 33.7539 321.91 33.7773C320.551 33.7773 319.496 34.0469 318.746 34.5859C317.996 35.125 317.445 35.8398 317.094 36.7305V67H310.906V28.9609H316.742ZM389.094 48.4023C389.094 51.1211 388.766 53.6641 388.109 56.0312C387.453 58.375 386.492 60.4141 385.227 62.1484C383.961 63.8828 382.391 65.2422 380.516 66.2266C378.664 67.2109 376.543 67.7031 374.152 67.7031C371.832 67.7031 369.781 67.3281 368 66.5781C366.242 65.8281 364.73 64.75 363.465 63.3438V81.625H356.961V28.9609H362.902L363.219 33.1094C364.484 31.5391 366.008 30.3438 367.789 29.5234C369.594 28.6797 371.68 28.2578 374.047 28.2578C376.484 28.2578 378.641 28.7383 380.516 29.6992C382.391 30.6602 383.961 31.9961 385.227 33.707C386.492 35.418 387.453 37.4688 388.109 39.8594C388.766 42.2266 389.094 44.8281 389.094 47.6641V48.4023ZM382.59 47.6641C382.59 45.8125 382.379 44.0547 381.957 42.3906C381.559 40.7031 380.926 39.2266 380.059 37.9609C379.215 36.6719 378.137 35.6523 376.824 34.9023C375.512 34.1523 373.941 33.7773 372.113 33.7773C370.027 33.7773 368.27 34.2695 366.84 35.2539C365.434 36.2148 364.309 37.457 363.465 38.9805V57.2969C364.309 58.7969 365.434 60.0273 366.84 60.9883C368.246 61.9258 370.027 62.3945 372.184 62.3945C373.988 62.3945 375.547 62.0195 376.859 61.2695C378.172 60.4961 379.25 59.4648 380.094 58.1758C380.938 56.8867 381.559 55.3984 381.957 53.7109C382.379 52.0234 382.59 50.2539 382.59 48.4023V47.6641ZM424.918 61.7617C423.652 63.6367 422.07 65.1016 420.172 66.1562C418.273 67.1875 416.082 67.7031 413.598 67.7031C411.605 67.7031 409.801 67.3984 408.184 66.7891C406.566 66.1562 405.184 65.1836 404.035 63.8711C402.887 62.5586 401.996 60.8945 401.363 58.8789C400.754 56.8398 400.449 54.4023 400.449 51.5664V28.9609H406.953V51.6367C406.953 53.6992 407.117 55.4102 407.445 56.7695C407.773 58.1289 408.266 59.2188 408.922 60.0391C409.578 60.8359 410.375 61.3984 411.312 61.7266C412.273 62.0547 413.375 62.2188 414.617 62.2188C417.266 62.2188 419.398 61.6797 421.016 60.6016C422.656 59.5234 423.875 58.0703 424.672 56.2422V28.9609H431.211V67H425.305L424.918 61.7617ZM468.758 56.9102C468.758 56.1367 468.605 55.4453 468.301 54.8359C467.996 54.2031 467.48 53.6289 466.754 53.1133C466.027 52.5977 465.066 52.1289 463.871 51.707C462.676 51.2617 461.188 50.8633 459.406 50.5117C457.227 50.0664 455.234 49.5273 453.43 48.8945C451.648 48.2617 450.113 47.5117 448.824 46.6445C447.559 45.7539 446.574 44.7227 445.871 43.5508C445.168 42.3555 444.816 40.9727 444.816 39.4023C444.816 37.8555 445.18 36.4141 445.906 35.0781C446.633 33.7187 447.652 32.5352 448.965 31.5273C450.277 30.5195 451.836 29.7227 453.641 29.1367C455.469 28.5508 457.473 28.2578 459.652 28.2578C461.996 28.2578 464.105 28.5625 465.98 29.1719C467.855 29.7813 469.449 30.625 470.762 31.7031C472.074 32.7813 473.082 34.0469 473.785 35.5C474.512 36.9297 474.875 38.4766 474.875 40.1406H468.371C468.371 39.3203 468.16 38.5234 467.738 37.75C467.316 36.9531 466.73 36.25 465.98 35.6406C465.23 35.0313 464.316 34.5391 463.238 34.1641C462.184 33.7891 460.988 33.6016 459.652 33.6016C458.27 33.6016 457.051 33.7539 455.996 34.0586C454.965 34.3633 454.098 34.7734 453.395 35.2891C452.715 35.8047 452.199 36.4023 451.848 37.082C451.496 37.7617 451.32 38.4648 451.32 39.1914C451.32 39.9414 451.461 40.6094 451.742 41.1953C452.023 41.7813 452.504 42.3086 453.184 42.7773C453.887 43.2461 454.813 43.668 455.961 44.043C457.133 44.418 458.609 44.7812 460.391 45.1328C462.734 45.625 464.832 46.1992 466.684 46.8555C468.535 47.4883 470.094 48.2617 471.359 49.1758C472.625 50.0664 473.586 51.1094 474.242 52.3047C474.922 53.5 475.262 54.8828 475.262 56.4531C475.262 58.1406 474.875 59.6758 474.102 61.0586C473.352 62.4414 472.297 63.625 470.938 64.6094C469.578 65.5938 467.949 66.3555 466.051 66.8945C464.152 67.4336 462.078 67.7031 459.828 67.7031C457.25 67.7031 454.953 67.3633 452.938 66.6836C450.922 65.9805 449.211 65.0664 447.805 63.9414C446.422 62.793 445.355 61.4688 444.605 59.9688C443.879 58.4687 443.516 56.9102 443.516 55.293H450.02C450.113 56.6289 450.465 57.7539 451.074 58.668C451.707 59.582 452.48 60.3203 453.395 60.8828C454.332 61.4453 455.363 61.8437 456.488 62.0781C457.613 62.3125 458.727 62.4297 459.828 62.4297C462.57 62.4297 464.738 61.9258 466.332 60.918C467.926 59.9102 468.734 58.5742 468.758 56.9102ZM558.441 44.3945H537.137V67H530.562V15.8125H561.992V21.3672H537.137V38.875H558.441V44.3945ZM571.379 47.6289C571.379 44.8867 571.777 42.3438 572.574 40C573.371 37.6328 574.508 35.582 575.984 33.8477C577.484 32.1133 579.301 30.7539 581.434 29.7695C583.566 28.7617 585.969 28.2578 588.641 28.2578C591.336 28.2578 593.75 28.7617 595.883 29.7695C598.039 30.7539 599.855 32.1133 601.332 33.8477C602.832 35.582 603.98 37.6328 604.777 40C605.574 42.3438 605.973 44.8867 605.973 47.6289V48.4023C605.973 51.1445 605.574 53.6875 604.777 56.0312C603.98 58.375 602.832 60.4141 601.332 62.1484C599.855 63.8828 598.051 65.2422 595.918 66.2266C593.785 67.2109 591.383 67.7031 588.711 67.7031C586.016 67.7031 583.59 67.2109 581.434 66.2266C579.301 65.2422 577.484 63.8828 575.984 62.1484C574.508 60.4141 573.371 58.375 572.574 56.0312C571.777 53.6875 571.379 51.1445 571.379 48.4023V47.6289ZM577.883 48.4023C577.883 50.2773 578.105 52.0703 578.551 53.7812C578.996 55.4688 579.664 56.957 580.555 58.2461C581.469 59.5352 582.605 60.5547 583.965 61.3047C585.324 62.0547 586.906 62.4297 588.711 62.4297C590.492 62.4297 592.051 62.0547 593.387 61.3047C594.746 60.5547 595.871 59.5352 596.762 58.2461C597.676 56.957 598.355 55.4688 598.801 53.7812C599.246 52.0703 599.469 50.2773 599.469 48.4023V47.6289C599.469 45.7773 599.234 44.0078 598.766 42.3203C598.32 40.6094 597.641 39.1094 596.727 37.8203C595.836 36.5312 594.711 35.5117 593.352 34.7617C592.016 33.9883 590.445 33.6016 588.641 33.6016C586.836 33.6016 585.266 33.9883 583.93 34.7617C582.594 35.5117 581.469 36.5312 580.555 37.8203C579.664 39.1094 578.996 40.6094 578.551 42.3203C578.105 44.0078 577.883 45.7773 577.883 47.6289V48.4023ZM641.375 28.2578C641.984 28.2578 642.617 28.2812 643.273 28.3281C643.93 28.3516 644.551 28.4102 645.137 28.5039C645.746 28.5742 646.297 28.668 646.789 28.7852C647.305 28.9023 647.727 29.0312 648.055 29.1719L647.176 35.5352C645.91 35.2539 644.703 35.0547 643.555 34.9375C642.43 34.7969 641.246 34.7266 640.004 34.7266C636.957 34.7266 634.484 35.418 632.586 36.8008C630.711 38.1836 629.328 40.1172 628.438 42.6016V67H621.898V28.9609H628.086L628.402 35.0078C629.949 32.9219 631.801 31.2812 633.957 30.0859C636.137 28.8672 638.609 28.2578 641.375 28.2578ZM662.68 28.9609L662.855 32.5469C663.629 31.2109 664.637 30.168 665.879 29.418C667.145 28.668 668.668 28.2812 670.449 28.2578C673.941 28.2578 676.273 29.6172 677.445 32.3359C678.195 31.1172 679.18 30.1445 680.398 29.418C681.641 28.668 683.141 28.2812 684.898 28.2578C687.687 28.2578 689.832 29.1133 691.332 30.8242C692.832 32.5352 693.582 35.125 693.582 38.5938V67H687.395V38.5234C687.395 35.3359 685.93 33.7539 683 33.7773C682.227 33.7773 681.559 33.8828 680.996 34.0938C680.434 34.3047 679.965 34.5977 679.59 34.9727C679.215 35.3242 678.922 35.7461 678.711 36.2383C678.5 36.707 678.359 37.1992 678.289 37.7148V67H672.102V38.4883C672.102 36.9648 671.762 35.793 671.082 34.9727C670.402 34.1523 669.324 33.7539 667.848 33.7773C666.488 33.7773 665.434 34.0469 664.684 34.5859C663.934 35.125 663.383 35.8398 663.031 36.7305V67H656.844V28.9609H662.68Z" fill="black"/>
</g>
</svg>
