<svg width="1220" height="444" viewBox="0 0 1220 444" fill="none" xmlns="http://www.w3.org/2000/svg">
<g id="New Student Form">
<g id="Header">
<rect id="Rectangle" x="193" y="138" width="800" height="52" fill="#C4C4C4"/>
<g id="Home">
<path d="M215.738 175H213.688V167.113H206.691V175H204.652V157.938H206.691V165.273H213.688V157.938H215.738V175ZM218.844 168.543C218.844 167.629 218.977 166.781 219.242 166C219.508 165.211 219.887 164.527 220.379 163.949C220.879 163.371 221.484 162.918 222.195 162.59C222.906 162.254 223.707 162.086 224.598 162.086C225.496 162.086 226.301 162.254 227.012 162.59C227.73 162.918 228.336 163.371 228.828 163.949C229.328 164.527 229.711 165.211 229.977 166C230.242 166.781 230.375 167.629 230.375 168.543V168.801C230.375 169.715 230.242 170.562 229.977 171.344C229.711 172.125 229.328 172.805 228.828 173.383C228.336 173.961 227.734 174.414 227.023 174.742C226.312 175.07 225.512 175.234 224.621 175.234C223.723 175.234 222.914 175.07 222.195 174.742C221.484 174.414 220.879 173.961 220.379 173.383C219.887 172.805 219.508 172.125 219.242 171.344C218.977 170.562 218.844 169.715 218.844 168.801V168.543ZM221.012 168.801C221.012 169.426 221.086 170.023 221.234 170.594C221.383 171.156 221.605 171.652 221.902 172.082C222.207 172.512 222.586 172.852 223.039 173.102C223.492 173.352 224.02 173.477 224.621 173.477C225.215 173.477 225.734 173.352 226.18 173.102C226.633 172.852 227.008 172.512 227.305 172.082C227.609 171.652 227.836 171.156 227.984 170.594C228.133 170.023 228.207 169.426 228.207 168.801V168.543C228.207 167.926 228.129 167.336 227.973 166.773C227.824 166.203 227.598 165.703 227.293 165.273C226.996 164.844 226.621 164.504 226.168 164.254C225.723 163.996 225.199 163.867 224.598 163.867C223.996 163.867 223.473 163.996 223.027 164.254C222.582 164.504 222.207 164.844 221.902 165.273C221.605 165.703 221.383 166.203 221.234 166.773C221.086 167.336 221.012 167.926 221.012 168.543V168.801ZM234.863 162.32L234.922 163.516C235.18 163.07 235.516 162.723 235.93 162.473C236.352 162.223 236.859 162.094 237.453 162.086C238.617 162.086 239.395 162.539 239.785 163.445C240.035 163.039 240.363 162.715 240.77 162.473C241.184 162.223 241.684 162.094 242.27 162.086C243.199 162.086 243.914 162.371 244.414 162.941C244.914 163.512 245.164 164.375 245.164 165.531V175H243.102V165.508C243.102 164.445 242.613 163.918 241.637 163.926C241.379 163.926 241.156 163.961 240.969 164.031C240.781 164.102 240.625 164.199 240.5 164.324C240.375 164.441 240.277 164.582 240.207 164.746C240.137 164.902 240.09 165.066 240.066 165.238V175H238.004V165.496C238.004 164.988 237.891 164.598 237.664 164.324C237.438 164.051 237.078 163.918 236.586 163.926C236.133 163.926 235.781 164.016 235.531 164.195C235.281 164.375 235.098 164.613 234.98 164.91V175H232.918V162.32H234.863ZM253.883 175.234C252.992 175.234 252.172 175.082 251.422 174.777C250.68 174.473 250.043 174.047 249.512 173.5C248.98 172.953 248.566 172.305 248.27 171.555C247.973 170.805 247.824 169.988 247.824 169.105V168.613C247.824 167.59 247.988 166.676 248.316 165.871C248.645 165.059 249.078 164.375 249.617 163.82C250.164 163.258 250.781 162.828 251.469 162.531C252.164 162.234 252.875 162.086 253.602 162.086C254.516 162.086 255.312 162.246 255.992 162.566C256.68 162.879 257.25 163.316 257.703 163.879C258.156 164.434 258.492 165.09 258.711 165.848C258.938 166.605 259.051 167.426 259.051 168.309V169.281H249.992C250.016 169.859 250.125 170.402 250.32 170.91C250.523 171.418 250.797 171.863 251.141 172.246C251.492 172.621 251.91 172.918 252.395 173.137C252.879 173.355 253.414 173.465 254 173.465C254.773 173.465 255.461 173.309 256.062 172.996C256.664 172.684 257.164 172.27 257.562 171.754L258.887 172.785C258.676 173.105 258.41 173.414 258.09 173.711C257.777 174 257.414 174.258 257 174.484C256.586 174.711 256.117 174.891 255.594 175.023C255.07 175.164 254.5 175.234 253.883 175.234ZM253.602 163.867C253.164 163.867 252.75 163.949 252.359 164.113C251.969 164.27 251.617 164.504 251.305 164.816C250.992 165.121 250.727 165.5 250.508 165.953C250.297 166.398 250.148 166.914 250.062 167.5H256.883V167.336C256.859 166.914 256.777 166.496 256.637 166.082C256.504 165.668 256.305 165.297 256.039 164.969C255.773 164.641 255.438 164.375 255.031 164.172C254.633 163.969 254.156 163.867 253.602 163.867Z" fill="black"/>
<path d="M203 177.609H260.645V178.781H203V177.609Z" fill="black"/>
</g>
<g id="Students">
<path d="M861.969 170.688C861.969 170.164 861.848 169.723 861.605 169.363C861.371 169.004 861.066 168.703 860.691 168.461C860.316 168.211 859.902 168.004 859.449 167.84C859.004 167.676 858.574 167.527 858.16 167.395C857.559 167.199 856.945 166.965 856.32 166.691C855.703 166.418 855.137 166.082 854.621 165.684C854.113 165.285 853.695 164.816 853.367 164.277C853.047 163.73 852.887 163.09 852.887 162.355C852.887 161.621 853.047 160.965 853.367 160.387C853.695 159.809 854.121 159.32 854.645 158.922C855.168 158.523 855.762 158.223 856.426 158.02C857.09 157.809 857.758 157.703 858.43 157.703C859.172 157.703 859.887 157.828 860.574 158.078C861.262 158.32 861.871 158.664 862.402 159.109C862.934 159.555 863.359 160.094 863.68 160.727C864 161.359 864.168 162.066 864.184 162.848H861.957C861.895 162.355 861.773 161.91 861.594 161.512C861.414 161.105 861.176 160.758 860.879 160.469C860.582 160.18 860.227 159.957 859.812 159.801C859.406 159.637 858.945 159.555 858.43 159.555C858.016 159.555 857.609 159.613 857.211 159.73C856.82 159.848 856.469 160.023 856.156 160.258C855.852 160.492 855.605 160.781 855.418 161.125C855.238 161.469 855.148 161.867 855.148 162.32C855.156 162.812 855.281 163.23 855.523 163.574C855.766 163.91 856.07 164.195 856.438 164.43C856.812 164.664 857.215 164.859 857.645 165.016C858.082 165.172 858.492 165.309 858.875 165.426C859.297 165.559 859.723 165.711 860.152 165.883C860.582 166.047 860.996 166.238 861.395 166.457C861.793 166.676 862.164 166.922 862.508 167.195C862.852 167.469 863.152 167.781 863.41 168.133C863.668 168.477 863.867 168.859 864.008 169.281C864.156 169.695 864.23 170.156 864.23 170.664C864.23 171.43 864.059 172.098 863.715 172.668C863.379 173.238 862.941 173.715 862.402 174.098C861.863 174.473 861.254 174.758 860.574 174.953C859.895 175.141 859.215 175.234 858.535 175.234C857.777 175.234 857.035 175.117 856.309 174.883C855.582 174.648 854.93 174.312 854.352 173.875C853.781 173.43 853.316 172.891 852.957 172.258C852.598 171.617 852.406 170.891 852.383 170.078H854.598C854.668 170.609 854.812 171.082 855.031 171.496C855.25 171.902 855.531 172.25 855.875 172.539C856.219 172.82 856.613 173.035 857.059 173.184C857.512 173.324 858.004 173.395 858.535 173.395C858.957 173.395 859.371 173.344 859.777 173.242C860.191 173.133 860.559 172.969 860.879 172.75C861.199 172.523 861.461 172.242 861.664 171.906C861.867 171.562 861.969 171.156 861.969 170.688ZM872.586 159.25V162.32H877.414V163.996H872.586V170.887C872.586 171.379 872.648 171.785 872.773 172.105C872.898 172.426 873.07 172.684 873.289 172.879C873.508 173.066 873.758 173.199 874.039 173.277C874.328 173.355 874.633 173.395 874.953 173.395C875.188 173.395 875.43 173.383 875.68 173.359C875.93 173.328 876.172 173.293 876.406 173.254C876.648 173.215 876.871 173.176 877.074 173.137C877.285 173.09 877.457 173.051 877.59 173.02L877.895 174.555C877.715 174.664 877.496 174.762 877.238 174.848C876.98 174.926 876.699 174.992 876.395 175.047C876.09 175.109 875.766 175.156 875.422 175.188C875.086 175.219 874.75 175.234 874.414 175.234C873.852 175.234 873.324 175.156 872.832 175C872.348 174.836 871.926 174.582 871.566 174.238C871.207 173.887 870.922 173.438 870.711 172.891C870.508 172.336 870.406 171.668 870.406 170.887V163.996H867.078V162.32H870.406V159.25H872.586ZM890.094 173.254C889.672 173.879 889.145 174.367 888.512 174.719C887.879 175.062 887.148 175.234 886.32 175.234C885.656 175.234 885.055 175.133 884.516 174.93C883.977 174.719 883.516 174.395 883.133 173.957C882.75 173.52 882.453 172.965 882.242 172.293C882.039 171.613 881.938 170.801 881.938 169.855V162.32H884.105V169.879C884.105 170.566 884.16 171.137 884.27 171.59C884.379 172.043 884.543 172.406 884.762 172.68C884.98 172.945 885.246 173.133 885.559 173.242C885.879 173.352 886.246 173.406 886.66 173.406C887.543 173.406 888.254 173.227 888.793 172.867C889.34 172.508 889.746 172.023 890.012 171.414V162.32H892.191V175H890.223L890.094 173.254ZM895.871 168.555C895.871 167.609 895.988 166.742 896.223 165.953C896.465 165.156 896.805 164.473 897.242 163.902C897.688 163.332 898.223 162.887 898.848 162.566C899.473 162.246 900.172 162.086 900.945 162.086C901.703 162.086 902.363 162.215 902.926 162.473C903.496 162.723 903.988 163.09 904.402 163.574V157H906.57V175H904.578L904.484 173.664C904.062 174.18 903.559 174.57 902.973 174.836C902.387 175.102 901.703 175.234 900.922 175.234C900.156 175.234 899.461 175.07 898.836 174.742C898.219 174.414 897.691 173.961 897.254 173.383C896.816 172.805 896.477 172.125 896.234 171.344C895.992 170.555 895.871 169.707 895.871 168.801V168.555ZM898.039 168.801C898.039 169.418 898.105 170.004 898.238 170.559C898.371 171.113 898.574 171.602 898.848 172.023C899.129 172.445 899.484 172.781 899.914 173.031C900.344 173.273 900.859 173.395 901.461 173.395C901.828 173.395 902.16 173.352 902.457 173.266C902.754 173.18 903.023 173.059 903.266 172.902C903.508 172.738 903.723 172.547 903.91 172.328C904.098 172.102 904.262 171.852 904.402 171.578V165.695C904.121 165.18 903.742 164.758 903.266 164.43C902.789 164.094 902.195 163.926 901.484 163.926C900.875 163.926 900.352 164.051 899.914 164.301C899.484 164.551 899.129 164.891 898.848 165.32C898.574 165.742 898.371 166.234 898.238 166.797C898.105 167.352 898.039 167.938 898.039 168.555V168.801ZM916.297 175.234C915.406 175.234 914.586 175.082 913.836 174.777C913.094 174.473 912.457 174.047 911.926 173.5C911.395 172.953 910.98 172.305 910.684 171.555C910.387 170.805 910.238 169.988 910.238 169.105V168.613C910.238 167.59 910.402 166.676 910.73 165.871C911.059 165.059 911.492 164.375 912.031 163.82C912.578 163.258 913.195 162.828 913.883 162.531C914.578 162.234 915.289 162.086 916.016 162.086C916.93 162.086 917.727 162.246 918.406 162.566C919.094 162.879 919.664 163.316 920.117 163.879C920.57 164.434 920.906 165.09 921.125 165.848C921.352 166.605 921.465 167.426 921.465 168.309V169.281H912.406C912.43 169.859 912.539 170.402 912.734 170.91C912.938 171.418 913.211 171.863 913.555 172.246C913.906 172.621 914.324 172.918 914.809 173.137C915.293 173.355 915.828 173.465 916.414 173.465C917.188 173.465 917.875 173.309 918.477 172.996C919.078 172.684 919.578 172.27 919.977 171.754L921.301 172.785C921.09 173.105 920.824 173.414 920.504 173.711C920.191 174 919.828 174.258 919.414 174.484C919 174.711 918.531 174.891 918.008 175.023C917.484 175.164 916.914 175.234 916.297 175.234ZM916.016 163.867C915.578 163.867 915.164 163.949 914.773 164.113C914.383 164.27 914.031 164.504 913.719 164.816C913.406 165.121 913.141 165.5 912.922 165.953C912.711 166.398 912.562 166.914 912.477 167.5H919.297V167.336C919.273 166.914 919.191 166.496 919.051 166.082C918.918 165.668 918.719 165.297 918.453 164.969C918.188 164.641 917.852 164.375 917.445 164.172C917.047 163.969 916.57 163.867 916.016 163.867ZM927.055 162.32L927.207 164.195C927.668 163.539 928.234 163.027 928.906 162.66C929.578 162.285 930.328 162.094 931.156 162.086C931.82 162.086 932.422 162.18 932.961 162.367C933.508 162.555 933.973 162.848 934.355 163.246C934.738 163.645 935.031 164.152 935.234 164.77C935.445 165.379 935.551 166.105 935.551 166.949V175H933.383V166.996C933.383 166.434 933.32 165.957 933.195 165.566C933.07 165.176 932.883 164.859 932.633 164.617C932.391 164.375 932.09 164.199 931.73 164.09C931.379 163.98 930.973 163.926 930.512 163.926C929.785 163.926 929.145 164.109 928.59 164.477C928.043 164.836 927.605 165.312 927.277 165.906V175H925.109V162.32H927.055ZM944.656 159.25V162.32H949.484V163.996H944.656V170.887C944.656 171.379 944.719 171.785 944.844 172.105C944.969 172.426 945.141 172.684 945.359 172.879C945.578 173.066 945.828 173.199 946.109 173.277C946.398 173.355 946.703 173.395 947.023 173.395C947.258 173.395 947.5 173.383 947.75 173.359C948 173.328 948.242 173.293 948.477 173.254C948.719 173.215 948.941 173.176 949.145 173.137C949.355 173.09 949.527 173.051 949.66 173.02L949.965 174.555C949.785 174.664 949.566 174.762 949.309 174.848C949.051 174.926 948.77 174.992 948.465 175.047C948.16 175.109 947.836 175.156 947.492 175.188C947.156 175.219 946.82 175.234 946.484 175.234C945.922 175.234 945.395 175.156 944.902 175C944.418 174.836 943.996 174.582 943.637 174.238C943.277 173.887 942.992 173.438 942.781 172.891C942.578 172.336 942.477 171.668 942.477 170.887V163.996H939.148V162.32H942.477V159.25H944.656ZM962.363 171.637C962.363 171.379 962.312 171.148 962.211 170.945C962.109 170.734 961.938 170.543 961.695 170.371C961.453 170.199 961.133 170.043 960.734 169.902C960.336 169.754 959.84 169.621 959.246 169.504C958.52 169.355 957.855 169.176 957.254 168.965C956.66 168.754 956.148 168.504 955.719 168.215C955.297 167.918 954.969 167.574 954.734 167.184C954.5 166.785 954.383 166.324 954.383 165.801C954.383 165.285 954.504 164.805 954.746 164.359C954.988 163.906 955.328 163.512 955.766 163.176C956.203 162.84 956.723 162.574 957.324 162.379C957.934 162.184 958.602 162.086 959.328 162.086C960.109 162.086 960.812 162.188 961.438 162.391C962.062 162.594 962.594 162.875 963.031 163.234C963.469 163.594 963.805 164.016 964.039 164.5C964.281 164.977 964.402 165.492 964.402 166.047H962.234C962.234 165.773 962.164 165.508 962.023 165.25C961.883 164.984 961.688 164.75 961.438 164.547C961.188 164.344 960.883 164.18 960.523 164.055C960.172 163.93 959.773 163.867 959.328 163.867C958.867 163.867 958.461 163.918 958.109 164.02C957.766 164.121 957.477 164.258 957.242 164.43C957.016 164.602 956.844 164.801 956.727 165.027C956.609 165.254 956.551 165.488 956.551 165.73C956.551 165.98 956.598 166.203 956.691 166.398C956.785 166.594 956.945 166.77 957.172 166.926C957.406 167.082 957.715 167.223 958.098 167.348C958.488 167.473 958.98 167.594 959.574 167.711C960.355 167.875 961.055 168.066 961.672 168.285C962.289 168.496 962.809 168.754 963.23 169.059C963.652 169.355 963.973 169.703 964.191 170.102C964.418 170.5 964.531 170.961 964.531 171.484C964.531 172.047 964.402 172.559 964.145 173.02C963.895 173.48 963.543 173.875 963.09 174.203C962.637 174.531 962.094 174.785 961.461 174.965C960.828 175.145 960.137 175.234 959.387 175.234C958.527 175.234 957.762 175.121 957.09 174.895C956.418 174.66 955.848 174.355 955.379 173.98C954.918 173.598 954.562 173.156 954.312 172.656C954.07 172.156 953.949 171.637 953.949 171.098H956.117C956.148 171.543 956.266 171.918 956.469 172.223C956.68 172.527 956.938 172.773 957.242 172.961C957.555 173.148 957.898 173.281 958.273 173.359C958.648 173.438 959.02 173.477 959.387 173.477C960.301 173.477 961.023 173.309 961.555 172.973C962.086 172.637 962.355 172.191 962.363 171.637Z" fill="black"/>
<path d="M851 177.609H966.301V178.781H851V177.609Z" fill="black"/>
</g>
<g id="Campuses">
<path d="M733.09 169.867C732.988 170.656 732.785 171.383 732.48 172.047C732.176 172.703 731.777 173.27 731.285 173.746C730.801 174.215 730.223 174.582 729.551 174.848C728.887 175.105 728.145 175.234 727.324 175.234C726.621 175.234 725.98 175.137 725.402 174.941C724.832 174.738 724.32 174.461 723.867 174.109C723.422 173.758 723.035 173.344 722.707 172.867C722.387 172.391 722.117 171.871 721.898 171.309C721.688 170.746 721.527 170.156 721.418 169.539C721.316 168.922 721.262 168.297 721.254 167.664V165.285C721.262 164.652 721.316 164.027 721.418 163.41C721.527 162.793 721.688 162.203 721.898 161.641C722.117 161.078 722.387 160.559 722.707 160.082C723.035 159.598 723.422 159.18 723.867 158.828C724.32 158.477 724.832 158.203 725.402 158.008C725.973 157.805 726.613 157.703 727.324 157.703C728.176 157.703 728.938 157.836 729.609 158.102C730.281 158.359 730.859 158.73 731.344 159.215C731.828 159.691 732.215 160.266 732.504 160.938C732.801 161.609 732.996 162.352 733.09 163.164H730.922C730.852 162.648 730.73 162.168 730.559 161.723C730.387 161.277 730.156 160.887 729.867 160.551C729.578 160.215 729.223 159.953 728.801 159.766C728.387 159.57 727.895 159.473 727.324 159.473C726.809 159.473 726.352 159.559 725.953 159.73C725.562 159.895 725.223 160.121 724.934 160.41C724.652 160.699 724.414 161.035 724.219 161.418C724.031 161.801 723.879 162.207 723.762 162.637C723.645 163.066 723.559 163.508 723.504 163.961C723.457 164.406 723.434 164.84 723.434 165.262V167.664C723.434 168.086 723.457 168.523 723.504 168.977C723.559 169.422 723.645 169.863 723.762 170.301C723.879 170.73 724.031 171.137 724.219 171.52C724.406 171.902 724.645 172.242 724.934 172.539C725.223 172.828 725.562 173.059 725.953 173.23C726.344 173.395 726.801 173.477 727.324 173.477C727.895 173.477 728.387 173.387 728.801 173.207C729.223 173.027 729.578 172.777 729.867 172.457C730.156 172.129 730.387 171.746 730.559 171.309C730.73 170.863 730.852 170.383 730.922 169.867H733.09ZM744.785 175C744.699 174.836 744.629 174.633 744.574 174.391C744.527 174.141 744.492 173.883 744.469 173.617C744.25 173.836 744.004 174.043 743.73 174.238C743.465 174.434 743.168 174.605 742.84 174.754C742.52 174.902 742.176 175.02 741.809 175.105C741.441 175.191 741.051 175.234 740.637 175.234C739.965 175.234 739.355 175.137 738.809 174.941C738.27 174.746 737.809 174.484 737.426 174.156C737.051 173.82 736.758 173.426 736.547 172.973C736.344 172.512 736.242 172.016 736.242 171.484C736.242 170.789 736.379 170.18 736.652 169.656C736.934 169.133 737.328 168.699 737.836 168.355C738.344 168.004 738.953 167.742 739.664 167.57C740.383 167.398 741.184 167.312 742.066 167.312H744.434V166.316C744.434 165.934 744.363 165.59 744.223 165.285C744.082 164.98 743.883 164.723 743.625 164.512C743.367 164.293 743.051 164.125 742.676 164.008C742.309 163.891 741.895 163.832 741.434 163.832C741.004 163.832 740.617 163.887 740.273 163.996C739.938 164.105 739.652 164.25 739.418 164.43C739.184 164.609 739 164.824 738.867 165.074C738.742 165.316 738.68 165.57 738.68 165.836H736.5C736.508 165.375 736.625 164.922 736.852 164.477C737.086 164.031 737.418 163.633 737.848 163.281C738.285 162.922 738.812 162.633 739.43 162.414C740.055 162.195 740.762 162.086 741.551 162.086C742.27 162.086 742.938 162.176 743.555 162.355C744.172 162.527 744.703 162.793 745.148 163.152C745.602 163.504 745.957 163.945 746.215 164.477C746.473 165.008 746.602 165.629 746.602 166.34V172.234C746.602 172.656 746.641 173.105 746.719 173.582C746.797 174.051 746.906 174.461 747.047 174.812V175H744.785ZM740.953 173.348C741.375 173.348 741.77 173.293 742.137 173.184C742.504 173.074 742.836 172.93 743.133 172.75C743.438 172.57 743.699 172.367 743.918 172.141C744.137 171.906 744.309 171.664 744.434 171.414V168.848H742.418C741.152 168.848 740.168 169.035 739.465 169.41C738.762 169.785 738.41 170.375 738.41 171.18C738.41 171.492 738.461 171.781 738.562 172.047C738.672 172.312 738.832 172.543 739.043 172.738C739.254 172.926 739.52 173.074 739.84 173.184C740.16 173.293 740.531 173.348 740.953 173.348ZM751.863 162.32L751.922 163.516C752.18 163.07 752.516 162.723 752.93 162.473C753.352 162.223 753.859 162.094 754.453 162.086C755.617 162.086 756.395 162.539 756.785 163.445C757.035 163.039 757.363 162.715 757.77 162.473C758.184 162.223 758.684 162.094 759.27 162.086C760.199 162.086 760.914 162.371 761.414 162.941C761.914 163.512 762.164 164.375 762.164 165.531V175H760.102V165.508C760.102 164.445 759.613 163.918 758.637 163.926C758.379 163.926 758.156 163.961 757.969 164.031C757.781 164.102 757.625 164.199 757.5 164.324C757.375 164.441 757.277 164.582 757.207 164.746C757.137 164.902 757.09 165.066 757.066 165.238V175H755.004V165.496C755.004 164.988 754.891 164.598 754.664 164.324C754.438 164.051 754.078 163.918 753.586 163.926C753.133 163.926 752.781 164.016 752.531 164.195C752.281 164.375 752.098 164.613 751.98 164.91V175H749.918V162.32H751.863ZM775.98 168.801C775.98 169.707 775.871 170.555 775.652 171.344C775.434 172.125 775.113 172.805 774.691 173.383C774.27 173.961 773.746 174.414 773.121 174.742C772.504 175.07 771.797 175.234 771 175.234C770.227 175.234 769.543 175.109 768.949 174.859C768.363 174.609 767.859 174.25 767.438 173.781V179.875H765.27V162.32H767.25L767.355 163.703C767.777 163.18 768.285 162.781 768.879 162.508C769.48 162.227 770.176 162.086 770.965 162.086C771.777 162.086 772.496 162.246 773.121 162.566C773.746 162.887 774.27 163.332 774.691 163.902C775.113 164.473 775.434 165.156 775.652 165.953C775.871 166.742 775.98 167.609 775.98 168.555V168.801ZM773.812 168.555C773.812 167.938 773.742 167.352 773.602 166.797C773.469 166.234 773.258 165.742 772.969 165.32C772.688 164.891 772.328 164.551 771.891 164.301C771.453 164.051 770.93 163.926 770.32 163.926C769.625 163.926 769.039 164.09 768.562 164.418C768.094 164.738 767.719 165.152 767.438 165.66V171.766C767.719 172.266 768.094 172.676 768.562 172.996C769.031 173.309 769.625 173.465 770.344 173.465C770.945 173.465 771.465 173.34 771.902 173.09C772.34 172.832 772.699 172.488 772.98 172.059C773.262 171.629 773.469 171.133 773.602 170.57C773.742 170.008 773.812 169.418 773.812 168.801V168.555ZM787.922 173.254C787.5 173.879 786.973 174.367 786.34 174.719C785.707 175.062 784.977 175.234 784.148 175.234C783.484 175.234 782.883 175.133 782.344 174.93C781.805 174.719 781.344 174.395 780.961 173.957C780.578 173.52 780.281 172.965 780.07 172.293C779.867 171.613 779.766 170.801 779.766 169.855V162.32H781.934V169.879C781.934 170.566 781.988 171.137 782.098 171.59C782.207 172.043 782.371 172.406 782.59 172.68C782.809 172.945 783.074 173.133 783.387 173.242C783.707 173.352 784.074 173.406 784.488 173.406C785.371 173.406 786.082 173.227 786.621 172.867C787.168 172.508 787.574 172.023 787.84 171.414V162.32H790.02V175H788.051L787.922 173.254ZM802.535 171.637C802.535 171.379 802.484 171.148 802.383 170.945C802.281 170.734 802.109 170.543 801.867 170.371C801.625 170.199 801.305 170.043 800.906 169.902C800.508 169.754 800.012 169.621 799.418 169.504C798.691 169.355 798.027 169.176 797.426 168.965C796.832 168.754 796.32 168.504 795.891 168.215C795.469 167.918 795.141 167.574 794.906 167.184C794.672 166.785 794.555 166.324 794.555 165.801C794.555 165.285 794.676 164.805 794.918 164.359C795.16 163.906 795.5 163.512 795.938 163.176C796.375 162.84 796.895 162.574 797.496 162.379C798.105 162.184 798.773 162.086 799.5 162.086C800.281 162.086 800.984 162.188 801.609 162.391C802.234 162.594 802.766 162.875 803.203 163.234C803.641 163.594 803.977 164.016 804.211 164.5C804.453 164.977 804.574 165.492 804.574 166.047H802.406C802.406 165.773 802.336 165.508 802.195 165.25C802.055 164.984 801.859 164.75 801.609 164.547C801.359 164.344 801.055 164.18 800.695 164.055C800.344 163.93 799.945 163.867 799.5 163.867C799.039 163.867 798.633 163.918 798.281 164.02C797.938 164.121 797.648 164.258 797.414 164.43C797.188 164.602 797.016 164.801 796.898 165.027C796.781 165.254 796.723 165.488 796.723 165.73C796.723 165.98 796.77 166.203 796.863 166.398C796.957 166.594 797.117 166.77 797.344 166.926C797.578 167.082 797.887 167.223 798.27 167.348C798.66 167.473 799.152 167.594 799.746 167.711C800.527 167.875 801.227 168.066 801.844 168.285C802.461 168.496 802.98 168.754 803.402 169.059C803.824 169.355 804.145 169.703 804.363 170.102C804.59 170.5 804.703 170.961 804.703 171.484C804.703 172.047 804.574 172.559 804.316 173.02C804.066 173.48 803.715 173.875 803.262 174.203C802.809 174.531 802.266 174.785 801.633 174.965C801 175.145 800.309 175.234 799.559 175.234C798.699 175.234 797.934 175.121 797.262 174.895C796.59 174.66 796.02 174.355 795.551 173.98C795.09 173.598 794.734 173.156 794.484 172.656C794.242 172.156 794.121 171.637 794.121 171.098H796.289C796.32 171.543 796.438 171.918 796.641 172.223C796.852 172.527 797.109 172.773 797.414 172.961C797.727 173.148 798.07 173.281 798.445 173.359C798.82 173.438 799.191 173.477 799.559 173.477C800.473 173.477 801.195 173.309 801.727 172.973C802.258 172.637 802.527 172.191 802.535 171.637ZM814.125 175.234C813.234 175.234 812.414 175.082 811.664 174.777C810.922 174.473 810.285 174.047 809.754 173.5C809.223 172.953 808.809 172.305 808.512 171.555C808.215 170.805 808.066 169.988 808.066 169.105V168.613C808.066 167.59 808.23 166.676 808.559 165.871C808.887 165.059 809.32 164.375 809.859 163.82C810.406 163.258 811.023 162.828 811.711 162.531C812.406 162.234 813.117 162.086 813.844 162.086C814.758 162.086 815.555 162.246 816.234 162.566C816.922 162.879 817.492 163.316 817.945 163.879C818.398 164.434 818.734 165.09 818.953 165.848C819.18 166.605 819.293 167.426 819.293 168.309V169.281H810.234C810.258 169.859 810.367 170.402 810.562 170.91C810.766 171.418 811.039 171.863 811.383 172.246C811.734 172.621 812.152 172.918 812.637 173.137C813.121 173.355 813.656 173.465 814.242 173.465C815.016 173.465 815.703 173.309 816.305 172.996C816.906 172.684 817.406 172.27 817.805 171.754L819.129 172.785C818.918 173.105 818.652 173.414 818.332 173.711C818.02 174 817.656 174.258 817.242 174.484C816.828 174.711 816.359 174.891 815.836 175.023C815.312 175.164 814.742 175.234 814.125 175.234ZM813.844 163.867C813.406 163.867 812.992 163.949 812.602 164.113C812.211 164.27 811.859 164.504 811.547 164.816C811.234 165.121 810.969 165.5 810.75 165.953C810.539 166.398 810.391 166.914 810.305 167.5H817.125V167.336C817.102 166.914 817.02 166.496 816.879 166.082C816.746 165.668 816.547 165.297 816.281 164.969C816.016 164.641 815.68 164.375 815.273 164.172C814.875 163.969 814.398 163.867 813.844 163.867ZM831.363 171.637C831.363 171.379 831.312 171.148 831.211 170.945C831.109 170.734 830.938 170.543 830.695 170.371C830.453 170.199 830.133 170.043 829.734 169.902C829.336 169.754 828.84 169.621 828.246 169.504C827.52 169.355 826.855 169.176 826.254 168.965C825.66 168.754 825.148 168.504 824.719 168.215C824.297 167.918 823.969 167.574 823.734 167.184C823.5 166.785 823.383 166.324 823.383 165.801C823.383 165.285 823.504 164.805 823.746 164.359C823.988 163.906 824.328 163.512 824.766 163.176C825.203 162.84 825.723 162.574 826.324 162.379C826.934 162.184 827.602 162.086 828.328 162.086C829.109 162.086 829.812 162.188 830.438 162.391C831.062 162.594 831.594 162.875 832.031 163.234C832.469 163.594 832.805 164.016 833.039 164.5C833.281 164.977 833.402 165.492 833.402 166.047H831.234C831.234 165.773 831.164 165.508 831.023 165.25C830.883 164.984 830.688 164.75 830.438 164.547C830.188 164.344 829.883 164.18 829.523 164.055C829.172 163.93 828.773 163.867 828.328 163.867C827.867 163.867 827.461 163.918 827.109 164.02C826.766 164.121 826.477 164.258 826.242 164.43C826.016 164.602 825.844 164.801 825.727 165.027C825.609 165.254 825.551 165.488 825.551 165.73C825.551 165.98 825.598 166.203 825.691 166.398C825.785 166.594 825.945 166.77 826.172 166.926C826.406 167.082 826.715 167.223 827.098 167.348C827.488 167.473 827.98 167.594 828.574 167.711C829.355 167.875 830.055 168.066 830.672 168.285C831.289 168.496 831.809 168.754 832.23 169.059C832.652 169.355 832.973 169.703 833.191 170.102C833.418 170.5 833.531 170.961 833.531 171.484C833.531 172.047 833.402 172.559 833.145 173.02C832.895 173.48 832.543 173.875 832.09 174.203C831.637 174.531 831.094 174.785 830.461 174.965C829.828 175.145 829.137 175.234 828.387 175.234C827.527 175.234 826.762 175.121 826.09 174.895C825.418 174.66 824.848 174.355 824.379 173.98C823.918 173.598 823.562 173.156 823.312 172.656C823.07 172.156 822.949 171.637 822.949 171.098H825.117C825.148 171.543 825.266 171.918 825.469 172.223C825.68 172.527 825.938 172.773 826.242 172.961C826.555 173.148 826.898 173.281 827.273 173.359C827.648 173.438 828.02 173.477 828.387 173.477C829.301 173.477 830.023 173.309 830.555 172.973C831.086 172.637 831.355 172.191 831.363 171.637Z" fill="black"/>
<path d="M720 177.609H835.301V178.781H720V177.609Z" fill="black"/>
</g>
</g>
<path id="Student Name" d="M458.969 262.375C458.969 261.328 458.727 260.445 458.242 259.727C457.773 259.008 457.164 258.406 456.414 257.922C455.664 257.422 454.836 257.008 453.93 256.68C453.039 256.352 452.18 256.055 451.352 255.789C450.148 255.398 448.922 254.93 447.672 254.383C446.438 253.836 445.305 253.164 444.273 252.367C443.258 251.57 442.422 250.633 441.766 249.555C441.125 248.461 440.805 247.18 440.805 245.711C440.805 244.242 441.125 242.93 441.766 241.773C442.422 240.617 443.273 239.641 444.32 238.844C445.367 238.047 446.555 237.445 447.883 237.039C449.211 236.617 450.547 236.406 451.891 236.406C453.375 236.406 454.805 236.656 456.18 237.156C457.555 237.641 458.773 238.328 459.836 239.219C460.898 240.109 461.75 241.188 462.391 242.453C463.031 243.719 463.367 245.133 463.398 246.695H458.945C458.82 245.711 458.578 244.82 458.219 244.023C457.859 243.211 457.383 242.516 456.789 241.938C456.195 241.359 455.484 240.914 454.656 240.602C453.844 240.273 452.922 240.109 451.891 240.109C451.063 240.109 450.25 240.227 449.453 240.461C448.672 240.695 447.969 241.047 447.344 241.516C446.734 241.984 446.242 242.562 445.867 243.25C445.508 243.938 445.328 244.734 445.328 245.641C445.344 246.625 445.594 247.461 446.078 248.148C446.562 248.82 447.172 249.391 447.906 249.859C448.656 250.328 449.461 250.719 450.32 251.031C451.195 251.344 452.016 251.617 452.781 251.852C453.625 252.117 454.477 252.422 455.336 252.766C456.195 253.094 457.023 253.477 457.82 253.914C458.617 254.352 459.359 254.844 460.047 255.391C460.734 255.937 461.336 256.562 461.852 257.266C462.367 257.953 462.766 258.719 463.047 259.562C463.344 260.391 463.492 261.312 463.492 262.328C463.492 263.859 463.148 265.195 462.461 266.336C461.789 267.477 460.914 268.43 459.836 269.195C458.758 269.945 457.539 270.516 456.18 270.906C454.82 271.281 453.461 271.469 452.102 271.469C450.586 271.469 449.102 271.234 447.648 270.766C446.195 270.297 444.891 269.625 443.734 268.75C442.594 267.859 441.664 266.781 440.945 265.516C440.227 264.234 439.844 262.781 439.797 261.156H444.227C444.367 262.219 444.656 263.164 445.094 263.992C445.531 264.805 446.094 265.5 446.781 266.078C447.469 266.641 448.258 267.07 449.148 267.367C450.055 267.648 451.039 267.789 452.102 267.789C452.945 267.789 453.773 267.688 454.586 267.484C455.414 267.266 456.148 266.938 456.789 266.5C457.43 266.047 457.953 265.484 458.359 264.812C458.766 264.125 458.969 263.312 458.969 262.375ZM480.203 239.5V245.641H489.859V248.992H480.203V262.773C480.203 263.758 480.328 264.57 480.578 265.211C480.828 265.852 481.172 266.367 481.609 266.758C482.047 267.133 482.547 267.398 483.109 267.555C483.688 267.711 484.297 267.789 484.938 267.789C485.406 267.789 485.891 267.766 486.391 267.719C486.891 267.656 487.375 267.586 487.844 267.508C488.328 267.43 488.773 267.352 489.18 267.273C489.602 267.18 489.945 267.102 490.211 267.039L490.82 270.109C490.461 270.328 490.023 270.523 489.508 270.695C488.992 270.852 488.43 270.984 487.82 271.094C487.211 271.219 486.562 271.312 485.875 271.375C485.203 271.437 484.531 271.469 483.859 271.469C482.734 271.469 481.68 271.312 480.695 271C479.727 270.672 478.883 270.164 478.164 269.477C477.445 268.773 476.875 267.875 476.453 266.781C476.047 265.672 475.844 264.336 475.844 262.773V248.992H469.188V245.641H475.844V239.5H480.203ZM515.219 267.508C514.375 268.758 513.32 269.734 512.055 270.438C510.789 271.125 509.328 271.469 507.672 271.469C506.344 271.469 505.141 271.266 504.062 270.859C502.984 270.438 502.062 269.789 501.297 268.914C500.531 268.039 499.938 266.93 499.516 265.586C499.109 264.227 498.906 262.602 498.906 260.711V245.641H503.242V260.758C503.242 262.133 503.352 263.273 503.57 264.18C503.789 265.086 504.117 265.813 504.555 266.359C504.992 266.891 505.523 267.266 506.148 267.484C506.789 267.703 507.523 267.812 508.352 267.812C510.117 267.812 511.539 267.453 512.617 266.734C513.711 266.016 514.523 265.047 515.055 263.828V245.641H519.414V271H515.477L515.219 267.508ZM526.773 258.109C526.773 256.219 527.008 254.484 527.477 252.906C527.961 251.312 528.641 249.945 529.516 248.805C530.406 247.664 531.477 246.773 532.727 246.133C533.977 245.492 535.375 245.172 536.922 245.172C538.438 245.172 539.758 245.43 540.883 245.945C542.023 246.445 543.008 247.18 543.836 248.148V235H548.172V271H544.188L544 268.328C543.156 269.359 542.148 270.141 540.977 270.672C539.805 271.203 538.438 271.469 536.875 271.469C535.344 271.469 533.953 271.141 532.703 270.484C531.469 269.828 530.414 268.922 529.539 267.766C528.664 266.609 527.984 265.25 527.5 263.688C527.016 262.109 526.773 260.414 526.773 258.602V258.109ZM531.109 258.602C531.109 259.836 531.242 261.008 531.508 262.117C531.773 263.227 532.18 264.203 532.727 265.047C533.289 265.891 534 266.563 534.859 267.062C535.719 267.547 536.75 267.789 537.953 267.789C538.687 267.789 539.352 267.703 539.945 267.531C540.539 267.359 541.078 267.117 541.562 266.805C542.047 266.477 542.477 266.094 542.852 265.656C543.227 265.203 543.555 264.703 543.836 264.156V252.391C543.273 251.359 542.516 250.516 541.562 249.859C540.609 249.187 539.422 248.852 538 248.852C536.781 248.852 535.734 249.102 534.859 249.602C534 250.102 533.289 250.781 532.727 251.641C532.18 252.484 531.773 253.469 531.508 254.594C531.242 255.703 531.109 256.875 531.109 258.109V258.602ZM567.625 271.469C565.844 271.469 564.203 271.164 562.703 270.555C561.219 269.945 559.945 269.094 558.883 268C557.82 266.906 556.992 265.609 556.398 264.109C555.805 262.609 555.508 260.977 555.508 259.211V258.227C555.508 256.18 555.836 254.352 556.492 252.742C557.148 251.117 558.016 249.75 559.094 248.641C560.187 247.516 561.422 246.656 562.797 246.062C564.188 245.469 565.609 245.172 567.062 245.172C568.891 245.172 570.484 245.492 571.844 246.133C573.219 246.758 574.359 247.633 575.266 248.758C576.172 249.867 576.844 251.18 577.281 252.695C577.734 254.211 577.961 255.852 577.961 257.617V259.562H559.844C559.891 260.719 560.109 261.805 560.5 262.82C560.906 263.836 561.453 264.727 562.141 265.492C562.844 266.242 563.68 266.836 564.648 267.273C565.617 267.711 566.688 267.93 567.859 267.93C569.406 267.93 570.781 267.617 571.984 266.992C573.187 266.367 574.188 265.539 574.984 264.508L577.633 266.57C577.211 267.211 576.68 267.828 576.039 268.422C575.414 269 574.687 269.516 573.859 269.969C573.031 270.422 572.094 270.781 571.047 271.047C570 271.328 568.859 271.469 567.625 271.469ZM567.062 248.734C566.188 248.734 565.359 248.898 564.578 249.227C563.797 249.539 563.094 250.008 562.469 250.633C561.844 251.242 561.312 252 560.875 252.906C560.453 253.797 560.156 254.828 559.984 256H573.625V255.672C573.578 254.828 573.414 253.992 573.133 253.164C572.867 252.336 572.469 251.594 571.938 250.938C571.406 250.281 570.734 249.75 569.922 249.344C569.125 248.938 568.172 248.734 567.062 248.734ZM589.141 245.641L589.445 249.391C590.367 248.078 591.5 247.055 592.844 246.32C594.187 245.57 595.687 245.187 597.344 245.172C598.672 245.172 599.875 245.359 600.953 245.734C602.047 246.109 602.977 246.695 603.742 247.492C604.508 248.289 605.094 249.305 605.5 250.539C605.922 251.758 606.133 253.211 606.133 254.898V271H601.797V254.992C601.797 253.867 601.672 252.914 601.422 252.133C601.172 251.352 600.797 250.719 600.297 250.234C599.812 249.75 599.211 249.398 598.492 249.18C597.789 248.961 596.977 248.852 596.055 248.852C594.602 248.852 593.32 249.219 592.211 249.953C591.117 250.672 590.242 251.625 589.586 252.812V271H585.25V245.641H589.141ZM624.344 239.5V245.641H634V248.992H624.344V262.773C624.344 263.758 624.469 264.57 624.719 265.211C624.969 265.852 625.312 266.367 625.75 266.758C626.188 267.133 626.688 267.398 627.25 267.555C627.828 267.711 628.438 267.789 629.078 267.789C629.547 267.789 630.031 267.766 630.531 267.719C631.031 267.656 631.516 267.586 631.984 267.508C632.469 267.43 632.914 267.352 633.32 267.273C633.742 267.18 634.086 267.102 634.352 267.039L634.961 270.109C634.602 270.328 634.164 270.523 633.648 270.695C633.133 270.852 632.57 270.984 631.961 271.094C631.352 271.219 630.703 271.312 630.016 271.375C629.344 271.437 628.672 271.469 628 271.469C626.875 271.469 625.82 271.312 624.836 271C623.867 270.672 623.023 270.164 622.305 269.477C621.586 268.773 621.016 267.875 620.594 266.781C620.187 265.672 619.984 264.336 619.984 262.773V248.992H613.328V245.641H619.984V239.5H624.344ZM693.109 271H688.703L675.461 245.5L675.391 271H671.008V236.875H675.414L688.656 262.328L688.727 236.875H693.109V271ZM717.227 271C717.055 270.672 716.914 270.266 716.805 269.781C716.711 269.281 716.641 268.766 716.594 268.234C716.156 268.672 715.664 269.086 715.117 269.477C714.586 269.867 713.992 270.211 713.336 270.508C712.695 270.805 712.008 271.039 711.273 271.211C710.539 271.383 709.758 271.469 708.93 271.469C707.586 271.469 706.367 271.273 705.273 270.883C704.195 270.492 703.273 269.969 702.508 269.312C701.758 268.641 701.172 267.852 700.75 266.945C700.344 266.023 700.141 265.031 700.141 263.969C700.141 262.578 700.414 261.359 700.961 260.312C701.523 259.266 702.313 258.398 703.328 257.711C704.344 257.008 705.563 256.484 706.984 256.141C708.422 255.797 710.023 255.625 711.789 255.625H716.523V253.633C716.523 252.867 716.383 252.18 716.102 251.57C715.82 250.961 715.422 250.445 714.906 250.023C714.391 249.586 713.758 249.25 713.008 249.016C712.273 248.781 711.445 248.664 710.523 248.664C709.664 248.664 708.891 248.773 708.203 248.992C707.531 249.211 706.961 249.5 706.492 249.859C706.023 250.219 705.656 250.648 705.391 251.148C705.141 251.633 705.016 252.141 705.016 252.672H700.656C700.672 251.75 700.906 250.844 701.359 249.953C701.828 249.062 702.492 248.266 703.352 247.562C704.227 246.844 705.281 246.266 706.516 245.828C707.766 245.391 709.18 245.172 710.758 245.172C712.195 245.172 713.531 245.352 714.766 245.711C716 246.055 717.062 246.586 717.953 247.305C718.859 248.008 719.57 248.891 720.086 249.953C720.602 251.016 720.859 252.258 720.859 253.68V265.469C720.859 266.312 720.938 267.211 721.094 268.164C721.25 269.102 721.469 269.922 721.75 270.625V271H717.227ZM709.562 267.695C710.406 267.695 711.195 267.586 711.93 267.367C712.664 267.148 713.328 266.859 713.922 266.5C714.531 266.141 715.055 265.734 715.492 265.281C715.93 264.812 716.273 264.328 716.523 263.828V258.695H712.492C709.961 258.695 707.992 259.07 706.586 259.82C705.18 260.57 704.477 261.75 704.477 263.359C704.477 263.984 704.578 264.563 704.781 265.094C705 265.625 705.32 266.086 705.742 266.477C706.164 266.852 706.695 267.148 707.336 267.367C707.977 267.586 708.719 267.695 709.562 267.695ZM731.383 245.641L731.5 248.031C732.016 247.141 732.687 246.445 733.516 245.945C734.359 245.445 735.375 245.187 736.562 245.172C738.891 245.172 740.445 246.078 741.227 247.891C741.727 247.078 742.383 246.43 743.195 245.945C744.023 245.445 745.023 245.187 746.195 245.172C748.055 245.172 749.484 245.742 750.484 246.883C751.484 248.023 751.984 249.75 751.984 252.062V271H747.859V252.016C747.859 249.891 746.883 248.836 744.93 248.852C744.414 248.852 743.969 248.922 743.594 249.062C743.219 249.203 742.906 249.398 742.656 249.648C742.406 249.883 742.211 250.164 742.07 250.492C741.93 250.805 741.836 251.133 741.789 251.477V271H737.664V251.992C737.664 250.977 737.437 250.195 736.984 249.648C736.531 249.102 735.812 248.836 734.828 248.852C733.922 248.852 733.219 249.031 732.719 249.391C732.219 249.75 731.852 250.227 731.617 250.82V271H727.492V245.641H731.383ZM769.422 271.469C767.641 271.469 766 271.164 764.5 270.555C763.016 269.945 761.742 269.094 760.68 268C759.617 266.906 758.789 265.609 758.195 264.109C757.602 262.609 757.305 260.977 757.305 259.211V258.227C757.305 256.18 757.633 254.352 758.289 252.742C758.945 251.117 759.812 249.75 760.891 248.641C761.984 247.516 763.219 246.656 764.594 246.062C765.984 245.469 767.406 245.172 768.859 245.172C770.688 245.172 772.281 245.492 773.641 246.133C775.016 246.758 776.156 247.633 777.062 248.758C777.969 249.867 778.641 251.18 779.078 252.695C779.531 254.211 779.758 255.852 779.758 257.617V259.562H761.641C761.688 260.719 761.906 261.805 762.297 262.82C762.703 263.836 763.25 264.727 763.938 265.492C764.641 266.242 765.477 266.836 766.445 267.273C767.414 267.711 768.484 267.93 769.656 267.93C771.203 267.93 772.578 267.617 773.781 266.992C774.984 266.367 775.984 265.539 776.781 264.508L779.43 266.57C779.008 267.211 778.477 267.828 777.836 268.422C777.211 269 776.484 269.516 775.656 269.969C774.828 270.422 773.891 270.781 772.844 271.047C771.797 271.328 770.656 271.469 769.422 271.469ZM768.859 248.734C767.984 248.734 767.156 248.898 766.375 249.227C765.594 249.539 764.891 250.008 764.266 250.633C763.641 251.242 763.109 252 762.672 252.906C762.25 253.797 761.953 254.828 761.781 256H775.422V255.672C775.375 254.828 775.211 253.992 774.93 253.164C774.664 252.336 774.266 251.594 773.734 250.938C773.203 250.281 772.531 249.75 771.719 249.344C770.922 248.938 769.969 248.734 768.859 248.734Z" fill="black"/>
<g id="Text Input">
<rect id="Rectangle_2" x="348.5" y="304.5" width="489" height="61" fill="#FAFAFA" stroke="black"/>
</g>
<g id="Add Campus">
<rect id="Rectangle_3" x="493" y="397" width="198" height="47" rx="15" fill="#30CDFF"/>
<path id="Add Student" d="M523.906 424.582H518.211L516.84 429H514.672L520.18 411.938H521.996L527.41 429H525.254L523.906 424.582ZM518.797 422.695H523.332L521.082 415.289L518.797 422.695ZM529.766 422.555C529.766 421.609 529.883 420.742 530.117 419.953C530.359 419.156 530.699 418.473 531.137 417.902C531.582 417.332 532.117 416.887 532.742 416.566C533.367 416.246 534.066 416.086 534.84 416.086C535.598 416.086 536.258 416.215 536.82 416.473C537.391 416.723 537.883 417.09 538.297 417.574V411H540.465V429H538.473L538.379 427.664C537.957 428.18 537.453 428.57 536.867 428.836C536.281 429.102 535.598 429.234 534.816 429.234C534.051 429.234 533.355 429.07 532.73 428.742C532.113 428.414 531.586 427.961 531.148 427.383C530.711 426.805 530.371 426.125 530.129 425.344C529.887 424.555 529.766 423.707 529.766 422.801V422.555ZM531.934 422.801C531.934 423.418 532 424.004 532.133 424.559C532.266 425.113 532.469 425.602 532.742 426.023C533.023 426.445 533.379 426.781 533.809 427.031C534.238 427.273 534.754 427.395 535.355 427.395C535.723 427.395 536.055 427.352 536.352 427.266C536.648 427.18 536.918 427.059 537.16 426.902C537.402 426.738 537.617 426.547 537.805 426.328C537.992 426.102 538.156 425.852 538.297 425.578V419.695C538.016 419.18 537.637 418.758 537.16 418.43C536.684 418.094 536.09 417.926 535.379 417.926C534.77 417.926 534.246 418.051 533.809 418.301C533.379 418.551 533.023 418.891 532.742 419.32C532.469 419.742 532.266 420.234 532.133 420.797C532 421.352 531.934 421.938 531.934 422.555V422.801ZM544.18 422.555C544.18 421.609 544.297 420.742 544.531 419.953C544.773 419.156 545.113 418.473 545.551 417.902C545.996 417.332 546.531 416.887 547.156 416.566C547.781 416.246 548.48 416.086 549.254 416.086C550.012 416.086 550.672 416.215 551.234 416.473C551.805 416.723 552.297 417.09 552.711 417.574V411H554.879V429H552.887L552.793 427.664C552.371 428.18 551.867 428.57 551.281 428.836C550.695 429.102 550.012 429.234 549.23 429.234C548.465 429.234 547.77 429.07 547.145 428.742C546.527 428.414 546 427.961 545.562 427.383C545.125 426.805 544.785 426.125 544.543 425.344C544.301 424.555 544.18 423.707 544.18 422.801V422.555ZM546.348 422.801C546.348 423.418 546.414 424.004 546.547 424.559C546.68 425.113 546.883 425.602 547.156 426.023C547.438 426.445 547.793 426.781 548.223 427.031C548.652 427.273 549.168 427.395 549.77 427.395C550.137 427.395 550.469 427.352 550.766 427.266C551.062 427.18 551.332 427.059 551.574 426.902C551.816 426.738 552.031 426.547 552.219 426.328C552.406 426.102 552.57 425.852 552.711 425.578V419.695C552.43 419.18 552.051 418.758 551.574 418.43C551.098 418.094 550.504 417.926 549.793 417.926C549.184 417.926 548.66 418.051 548.223 418.301C547.793 418.551 547.438 418.891 547.156 419.32C546.883 419.742 546.68 420.234 546.547 420.797C546.414 421.352 546.348 421.938 546.348 422.555V422.801ZM582.348 424.688C582.348 424.164 582.227 423.723 581.984 423.363C581.75 423.004 581.445 422.703 581.07 422.461C580.695 422.211 580.281 422.004 579.828 421.84C579.383 421.676 578.953 421.527 578.539 421.395C577.938 421.199 577.324 420.965 576.699 420.691C576.082 420.418 575.516 420.082 575 419.684C574.492 419.285 574.074 418.816 573.746 418.277C573.426 417.73 573.266 417.09 573.266 416.355C573.266 415.621 573.426 414.965 573.746 414.387C574.074 413.809 574.5 413.32 575.023 412.922C575.547 412.523 576.141 412.223 576.805 412.02C577.469 411.809 578.137 411.703 578.809 411.703C579.551 411.703 580.266 411.828 580.953 412.078C581.641 412.32 582.25 412.664 582.781 413.109C583.312 413.555 583.738 414.094 584.059 414.727C584.379 415.359 584.547 416.066 584.562 416.848H582.336C582.273 416.355 582.152 415.91 581.973 415.512C581.793 415.105 581.555 414.758 581.258 414.469C580.961 414.18 580.605 413.957 580.191 413.801C579.785 413.637 579.324 413.555 578.809 413.555C578.395 413.555 577.988 413.613 577.59 413.73C577.199 413.848 576.848 414.023 576.535 414.258C576.23 414.492 575.984 414.781 575.797 415.125C575.617 415.469 575.527 415.867 575.527 416.32C575.535 416.812 575.66 417.23 575.902 417.574C576.145 417.91 576.449 418.195 576.816 418.43C577.191 418.664 577.594 418.859 578.023 419.016C578.461 419.172 578.871 419.309 579.254 419.426C579.676 419.559 580.102 419.711 580.531 419.883C580.961 420.047 581.375 420.238 581.773 420.457C582.172 420.676 582.543 420.922 582.887 421.195C583.23 421.469 583.531 421.781 583.789 422.133C584.047 422.477 584.246 422.859 584.387 423.281C584.535 423.695 584.609 424.156 584.609 424.664C584.609 425.43 584.438 426.098 584.094 426.668C583.758 427.238 583.32 427.715 582.781 428.098C582.242 428.473 581.633 428.758 580.953 428.953C580.273 429.141 579.594 429.234 578.914 429.234C578.156 429.234 577.414 429.117 576.688 428.883C575.961 428.648 575.309 428.312 574.73 427.875C574.16 427.43 573.695 426.891 573.336 426.258C572.977 425.617 572.785 424.891 572.762 424.078H574.977C575.047 424.609 575.191 425.082 575.41 425.496C575.629 425.902 575.91 426.25 576.254 426.539C576.598 426.82 576.992 427.035 577.438 427.184C577.891 427.324 578.383 427.395 578.914 427.395C579.336 427.395 579.75 427.344 580.156 427.242C580.57 427.133 580.938 426.969 581.258 426.75C581.578 426.523 581.84 426.242 582.043 425.906C582.246 425.562 582.348 425.156 582.348 424.688ZM592.965 413.25V416.32H597.793V417.996H592.965V424.887C592.965 425.379 593.027 425.785 593.152 426.105C593.277 426.426 593.449 426.684 593.668 426.879C593.887 427.066 594.137 427.199 594.418 427.277C594.707 427.355 595.012 427.395 595.332 427.395C595.566 427.395 595.809 427.383 596.059 427.359C596.309 427.328 596.551 427.293 596.785 427.254C597.027 427.215 597.25 427.176 597.453 427.137C597.664 427.09 597.836 427.051 597.969 427.02L598.273 428.555C598.094 428.664 597.875 428.762 597.617 428.848C597.359 428.926 597.078 428.992 596.773 429.047C596.469 429.109 596.145 429.156 595.801 429.188C595.465 429.219 595.129 429.234 594.793 429.234C594.23 429.234 593.703 429.156 593.211 429C592.727 428.836 592.305 428.582 591.945 428.238C591.586 427.887 591.301 427.438 591.09 426.891C590.887 426.336 590.785 425.668 590.785 424.887V417.996H587.457V416.32H590.785V413.25H592.965ZM610.473 427.254C610.051 427.879 609.523 428.367 608.891 428.719C608.258 429.062 607.527 429.234 606.699 429.234C606.035 429.234 605.434 429.133 604.895 428.93C604.355 428.719 603.895 428.395 603.512 427.957C603.129 427.52 602.832 426.965 602.621 426.293C602.418 425.613 602.316 424.801 602.316 423.855V416.32H604.484V423.879C604.484 424.566 604.539 425.137 604.648 425.59C604.758 426.043 604.922 426.406 605.141 426.68C605.359 426.945 605.625 427.133 605.938 427.242C606.258 427.352 606.625 427.406 607.039 427.406C607.922 427.406 608.633 427.227 609.172 426.867C609.719 426.508 610.125 426.023 610.391 425.414V416.32H612.57V429H610.602L610.473 427.254ZM616.25 422.555C616.25 421.609 616.367 420.742 616.602 419.953C616.844 419.156 617.184 418.473 617.621 417.902C618.066 417.332 618.602 416.887 619.227 416.566C619.852 416.246 620.551 416.086 621.324 416.086C622.082 416.086 622.742 416.215 623.305 416.473C623.875 416.723 624.367 417.09 624.781 417.574V411H626.949V429H624.957L624.863 427.664C624.441 428.18 623.938 428.57 623.352 428.836C622.766 429.102 622.082 429.234 621.301 429.234C620.535 429.234 619.84 429.07 619.215 428.742C618.598 428.414 618.07 427.961 617.633 427.383C617.195 426.805 616.855 426.125 616.613 425.344C616.371 424.555 616.25 423.707 616.25 422.801V422.555ZM618.418 422.801C618.418 423.418 618.484 424.004 618.617 424.559C618.75 425.113 618.953 425.602 619.227 426.023C619.508 426.445 619.863 426.781 620.293 427.031C620.723 427.273 621.238 427.395 621.84 427.395C622.207 427.395 622.539 427.352 622.836 427.266C623.133 427.18 623.402 427.059 623.645 426.902C623.887 426.738 624.102 426.547 624.289 426.328C624.477 426.102 624.641 425.852 624.781 425.578V419.695C624.5 419.18 624.121 418.758 623.645 418.43C623.168 418.094 622.574 417.926 621.863 417.926C621.254 417.926 620.73 418.051 620.293 418.301C619.863 418.551 619.508 418.891 619.227 419.32C618.953 419.742 618.75 420.234 618.617 420.797C618.484 421.352 618.418 421.938 618.418 422.555V422.801ZM636.676 429.234C635.785 429.234 634.965 429.082 634.215 428.777C633.473 428.473 632.836 428.047 632.305 427.5C631.773 426.953 631.359 426.305 631.062 425.555C630.766 424.805 630.617 423.988 630.617 423.105V422.613C630.617 421.59 630.781 420.676 631.109 419.871C631.438 419.059 631.871 418.375 632.41 417.82C632.957 417.258 633.574 416.828 634.262 416.531C634.957 416.234 635.668 416.086 636.395 416.086C637.309 416.086 638.105 416.246 638.785 416.566C639.473 416.879 640.043 417.316 640.496 417.879C640.949 418.434 641.285 419.09 641.504 419.848C641.73 420.605 641.844 421.426 641.844 422.309V423.281H632.785C632.809 423.859 632.918 424.402 633.113 424.91C633.316 425.418 633.59 425.863 633.934 426.246C634.285 426.621 634.703 426.918 635.188 427.137C635.672 427.355 636.207 427.465 636.793 427.465C637.566 427.465 638.254 427.309 638.855 426.996C639.457 426.684 639.957 426.27 640.355 425.754L641.68 426.785C641.469 427.105 641.203 427.414 640.883 427.711C640.57 428 640.207 428.258 639.793 428.484C639.379 428.711 638.91 428.891 638.387 429.023C637.863 429.164 637.293 429.234 636.676 429.234ZM636.395 417.867C635.957 417.867 635.543 417.949 635.152 418.113C634.762 418.27 634.41 418.504 634.098 418.816C633.785 419.121 633.52 419.5 633.301 419.953C633.09 420.398 632.941 420.914 632.855 421.5H639.676V421.336C639.652 420.914 639.57 420.496 639.43 420.082C639.297 419.668 639.098 419.297 638.832 418.969C638.566 418.641 638.23 418.375 637.824 418.172C637.426 417.969 636.949 417.867 636.395 417.867ZM647.434 416.32L647.586 418.195C648.047 417.539 648.613 417.027 649.285 416.66C649.957 416.285 650.707 416.094 651.535 416.086C652.199 416.086 652.801 416.18 653.34 416.367C653.887 416.555 654.352 416.848 654.734 417.246C655.117 417.645 655.41 418.152 655.613 418.77C655.824 419.379 655.93 420.105 655.93 420.949V429H653.762V420.996C653.762 420.434 653.699 419.957 653.574 419.566C653.449 419.176 653.262 418.859 653.012 418.617C652.77 418.375 652.469 418.199 652.109 418.09C651.758 417.98 651.352 417.926 650.891 417.926C650.164 417.926 649.523 418.109 648.969 418.477C648.422 418.836 647.984 419.312 647.656 419.906V429H645.488V416.32H647.434ZM665.035 413.25V416.32H669.863V417.996H665.035V424.887C665.035 425.379 665.098 425.785 665.223 426.105C665.348 426.426 665.52 426.684 665.738 426.879C665.957 427.066 666.207 427.199 666.488 427.277C666.777 427.355 667.082 427.395 667.402 427.395C667.637 427.395 667.879 427.383 668.129 427.359C668.379 427.328 668.621 427.293 668.855 427.254C669.098 427.215 669.32 427.176 669.523 427.137C669.734 427.09 669.906 427.051 670.039 427.02L670.344 428.555C670.164 428.664 669.945 428.762 669.688 428.848C669.43 428.926 669.148 428.992 668.844 429.047C668.539 429.109 668.215 429.156 667.871 429.188C667.535 429.219 667.199 429.234 666.863 429.234C666.301 429.234 665.773 429.156 665.281 429C664.797 428.836 664.375 428.582 664.016 428.238C663.656 427.887 663.371 427.438 663.16 426.891C662.957 426.336 662.855 425.668 662.855 424.887V417.996H659.527V416.32H662.855V413.25H665.035Z" fill="#F7FCFF"/>
</g>
<path id="New Student Form_2" d="M302.242 67H295.633L275.77 28.75L275.664 67H269.09V15.8125H275.699L295.562 53.9922L295.668 15.8125H302.242V67ZM330.227 67.7031C327.555 67.7031 325.094 67.2461 322.844 66.332C320.617 65.418 318.707 64.1406 317.113 62.5C315.52 60.8594 314.277 58.9141 313.387 56.6641C312.496 54.4141 312.051 51.9648 312.051 49.3164V47.8398C312.051 44.7695 312.543 42.0273 313.527 39.6133C314.512 37.1758 315.812 35.125 317.43 33.4609C319.07 31.7734 320.922 30.4844 322.984 29.5938C325.07 28.7031 327.203 28.2578 329.383 28.2578C332.125 28.2578 334.516 28.7383 336.555 29.6992C338.617 30.6367 340.328 31.9492 341.688 33.6367C343.047 35.3008 344.055 37.2695 344.711 39.543C345.391 41.8164 345.73 44.2773 345.73 46.9258V49.8438H318.555C318.625 51.5781 318.953 53.207 319.539 54.7305C320.148 56.2539 320.969 57.5898 322 58.7383C323.055 59.8633 324.309 60.7539 325.762 61.4102C327.215 62.0664 328.82 62.3945 330.578 62.3945C332.898 62.3945 334.961 61.9258 336.766 60.9883C338.57 60.0508 340.07 58.8086 341.266 57.2617L345.238 60.3555C344.605 61.3164 343.809 62.2422 342.848 63.1328C341.91 64 340.82 64.7734 339.578 65.4531C338.336 66.1328 336.93 66.6719 335.359 67.0703C333.789 67.4922 332.078 67.7031 330.227 67.7031ZM329.383 33.6016C328.07 33.6016 326.828 33.8477 325.656 34.3398C324.484 34.8086 323.43 35.5117 322.492 36.4492C321.555 37.3633 320.758 38.5 320.102 39.8594C319.469 41.1953 319.023 42.7422 318.766 44.5H339.227V44.0078C339.156 42.7422 338.91 41.4883 338.488 40.2461C338.09 39.0039 337.492 37.8906 336.695 36.9062C335.898 35.9219 334.891 35.125 333.672 34.5156C332.477 33.9063 331.047 33.6016 329.383 33.6016ZM362.43 53.2188L363.203 58.668L364.152 53.2188L370.234 28.9609H374.418L380.465 53.2188L381.484 59.1953L382.434 53.2188L386.652 28.9609H392.418L384.332 67H379.199L373.258 43.6914L372.273 37.7852L371.324 43.6914L365.453 67H360.32L352.234 28.9609H358L362.43 53.2188ZM469.938 54.0625C469.938 52.4922 469.574 51.168 468.848 50.0898C468.145 49.0117 467.23 48.1094 466.105 47.3828C464.98 46.6328 463.738 46.0117 462.379 45.5195C461.043 45.0273 459.754 44.582 458.512 44.1836C456.707 43.5977 454.867 42.8945 452.992 42.0742C451.141 41.2539 449.441 40.2461 447.895 39.0508C446.371 37.8555 445.117 36.4492 444.133 34.832C443.172 33.1914 442.691 31.2695 442.691 29.0664C442.691 26.8633 443.172 24.8945 444.133 23.1602C445.117 21.4258 446.395 19.9609 447.965 18.7656C449.535 17.5703 451.316 16.668 453.309 16.0586C455.301 15.4258 457.305 15.1094 459.32 15.1094C461.547 15.1094 463.691 15.4844 465.754 16.2344C467.816 16.9609 469.645 17.9922 471.238 19.3281C472.832 20.6641 474.109 22.2812 475.07 24.1797C476.031 26.0781 476.535 28.1992 476.582 30.543H469.902C469.715 29.0664 469.352 27.7305 468.812 26.5352C468.273 25.3164 467.559 24.2734 466.668 23.4062C465.777 22.5391 464.711 21.8711 463.469 21.4023C462.25 20.9102 460.867 20.6641 459.32 20.6641C458.078 20.6641 456.859 20.8398 455.664 21.1914C454.492 21.543 453.437 22.0703 452.5 22.7734C451.586 23.4766 450.848 24.3437 450.285 25.375C449.746 26.4063 449.477 27.6016 449.477 28.9609C449.5 30.4375 449.875 31.6914 450.602 32.7227C451.328 33.7305 452.242 34.5859 453.344 35.2891C454.469 35.9922 455.676 36.5781 456.965 37.0469C458.277 37.5156 459.508 37.9258 460.656 38.2773C461.922 38.6758 463.199 39.1328 464.488 39.6484C465.777 40.1406 467.02 40.7148 468.215 41.3711C469.41 42.0273 470.523 42.7656 471.555 43.5859C472.586 44.4062 473.488 45.3438 474.262 46.3984C475.035 47.4297 475.633 48.5781 476.055 49.8438C476.5 51.0859 476.723 52.4687 476.723 53.9922C476.723 56.2891 476.207 58.293 475.176 60.0039C474.168 61.7148 472.855 63.1445 471.238 64.293C469.621 65.418 467.793 66.2734 465.754 66.8594C463.715 67.4219 461.676 67.7031 459.637 67.7031C457.363 67.7031 455.137 67.3516 452.957 66.6484C450.777 65.9453 448.82 64.9375 447.086 63.625C445.375 62.2891 443.98 60.6719 442.902 58.7734C441.824 56.8516 441.25 54.6719 441.18 52.2344H447.824C448.035 53.8281 448.469 55.2461 449.125 56.4883C449.781 57.707 450.625 58.75 451.656 59.6172C452.688 60.4609 453.871 61.1055 455.207 61.5508C456.566 61.9727 458.043 62.1836 459.637 62.1836C460.902 62.1836 462.145 62.0313 463.363 61.7266C464.605 61.3984 465.707 60.9063 466.668 60.25C467.629 59.5703 468.414 58.7266 469.023 57.7188C469.633 56.6875 469.938 55.4688 469.938 54.0625ZM501.789 19.75V28.9609H516.273V33.9883H501.789V54.6602C501.789 56.1367 501.977 57.3555 502.352 58.3164C502.727 59.2773 503.242 60.0508 503.898 60.6367C504.555 61.1992 505.305 61.5977 506.148 61.832C507.016 62.0664 507.93 62.1836 508.891 62.1836C509.594 62.1836 510.32 62.1484 511.07 62.0781C511.82 61.9844 512.547 61.8789 513.25 61.7617C513.977 61.6445 514.645 61.5273 515.254 61.4102C515.887 61.2695 516.402 61.1523 516.801 61.0586L517.715 65.6641C517.176 65.9922 516.52 66.2852 515.746 66.543C514.973 66.7773 514.129 66.9766 513.215 67.1406C512.301 67.3281 511.328 67.4687 510.297 67.5625C509.289 67.6562 508.281 67.7031 507.273 67.7031C505.586 67.7031 504.004 67.4687 502.527 67C501.074 66.5078 499.809 65.7461 498.73 64.7148C497.652 63.6602 496.797 62.3125 496.164 60.6719C495.555 59.0078 495.25 57.0039 495.25 54.6602V33.9883H485.266V28.9609H495.25V19.75H501.789ZM554.312 61.7617C553.047 63.6367 551.465 65.1016 549.566 66.1562C547.668 67.1875 545.477 67.7031 542.992 67.7031C541 67.7031 539.195 67.3984 537.578 66.7891C535.961 66.1562 534.578 65.1836 533.43 63.8711C532.281 62.5586 531.391 60.8945 530.758 58.8789C530.148 56.8398 529.844 54.4023 529.844 51.5664V28.9609H536.348V51.6367C536.348 53.6992 536.512 55.4102 536.84 56.7695C537.168 58.1289 537.66 59.2188 538.316 60.0391C538.973 60.8359 539.77 61.3984 540.707 61.7266C541.668 62.0547 542.77 62.2188 544.012 62.2188C546.66 62.2188 548.793 61.6797 550.41 60.6016C552.051 59.5234 553.27 58.0703 554.066 56.2422V28.9609H560.605V67H554.699L554.312 61.7617ZM571.645 47.6641C571.645 44.8281 571.996 42.2266 572.699 39.8594C573.426 37.4688 574.445 35.418 575.758 33.707C577.094 31.9961 578.699 30.6602 580.574 29.6992C582.449 28.7383 584.547 28.2578 586.867 28.2578C589.141 28.2578 591.121 28.6445 592.809 29.418C594.52 30.168 595.996 31.2695 597.238 32.7227V13H603.742V67H597.766L597.484 62.9922C596.219 64.5391 594.707 65.7109 592.949 66.5078C591.191 67.3047 589.141 67.7031 586.797 67.7031C584.5 67.7031 582.414 67.2109 580.539 66.2266C578.688 65.2422 577.105 63.8828 575.793 62.1484C574.48 60.4141 573.461 58.375 572.734 56.0312C572.008 53.6641 571.645 51.1211 571.645 48.4023V47.6641ZM578.148 48.4023C578.148 50.2539 578.348 52.0117 578.746 53.6758C579.145 55.3398 579.754 56.8047 580.574 58.0703C581.418 59.3359 582.484 60.3438 583.773 61.0938C585.063 61.8203 586.609 62.1836 588.414 62.1836C589.516 62.1836 590.512 62.0547 591.402 61.7969C592.293 61.5391 593.102 61.1758 593.828 60.707C594.555 60.2148 595.199 59.6406 595.762 58.9844C596.324 58.3047 596.816 57.5547 597.238 56.7344V39.0859C596.395 37.5391 595.258 36.2734 593.828 35.2891C592.398 34.2812 590.617 33.7773 588.484 33.7773C586.656 33.7773 585.086 34.1523 583.773 34.9023C582.484 35.6523 581.418 36.6719 580.574 37.9609C579.754 39.2266 579.145 40.7031 578.746 42.3906C578.348 44.0547 578.148 45.8125 578.148 47.6641V48.4023ZM632.922 67.7031C630.25 67.7031 627.789 67.2461 625.539 66.332C623.312 65.418 621.402 64.1406 619.809 62.5C618.215 60.8594 616.973 58.9141 616.082 56.6641C615.191 54.4141 614.746 51.9648 614.746 49.3164V47.8398C614.746 44.7695 615.238 42.0273 616.223 39.6133C617.207 37.1758 618.508 35.125 620.125 33.4609C621.766 31.7734 623.617 30.4844 625.68 29.5938C627.766 28.7031 629.898 28.2578 632.078 28.2578C634.82 28.2578 637.211 28.7383 639.25 29.6992C641.313 30.6367 643.023 31.9492 644.383 33.6367C645.742 35.3008 646.75 37.2695 647.406 39.543C648.086 41.8164 648.426 44.2773 648.426 46.9258V49.8438H621.25C621.32 51.5781 621.648 53.207 622.234 54.7305C622.844 56.2539 623.664 57.5898 624.695 58.7383C625.75 59.8633 627.004 60.7539 628.457 61.4102C629.91 62.0664 631.516 62.3945 633.273 62.3945C635.594 62.3945 637.656 61.9258 639.461 60.9883C641.266 60.0508 642.766 58.8086 643.961 57.2617L647.934 60.3555C647.301 61.3164 646.504 62.2422 645.543 63.1328C644.605 64 643.516 64.7734 642.273 65.4531C641.031 66.1328 639.625 66.6719 638.055 67.0703C636.484 67.4922 634.773 67.7031 632.922 67.7031ZM632.078 33.6016C630.766 33.6016 629.523 33.8477 628.352 34.3398C627.18 34.8086 626.125 35.5117 625.188 36.4492C624.25 37.3633 623.453 38.5 622.797 39.8594C622.164 41.1953 621.719 42.7422 621.461 44.5H641.922V44.0078C641.852 42.7422 641.605 41.4883 641.184 40.2461C640.785 39.0039 640.188 37.8906 639.391 36.9062C638.594 35.9219 637.586 35.125 636.367 34.5156C635.172 33.9063 633.742 33.6016 632.078 33.6016ZM665.195 28.9609L665.652 34.5859C667.035 32.6172 668.734 31.082 670.75 29.9805C672.766 28.8555 675.016 28.2812 677.5 28.2578C679.492 28.2578 681.297 28.5391 682.914 29.1016C684.555 29.6641 685.949 30.543 687.098 31.7383C688.246 32.9336 689.125 34.457 689.734 36.3086C690.367 38.1367 690.684 40.3164 690.684 42.8477V67H684.18V42.9883C684.18 41.3008 683.992 39.8711 683.617 38.6992C683.242 37.5273 682.68 36.5781 681.93 35.8516C681.203 35.125 680.301 34.5977 679.223 34.2695C678.168 33.9414 676.949 33.7773 675.566 33.7773C673.387 33.7773 671.465 34.3281 669.801 35.4297C668.16 36.5078 666.848 37.9375 665.863 39.7188V67H659.359V28.9609H665.195ZM718 19.75V28.9609H732.484V33.9883H718V54.6602C718 56.1367 718.187 57.3555 718.562 58.3164C718.938 59.2773 719.453 60.0508 720.109 60.6367C720.766 61.1992 721.516 61.5977 722.359 61.832C723.227 62.0664 724.141 62.1836 725.102 62.1836C725.805 62.1836 726.531 62.1484 727.281 62.0781C728.031 61.9844 728.758 61.8789 729.461 61.7617C730.188 61.6445 730.855 61.5273 731.465 61.4102C732.098 61.2695 732.613 61.1523 733.012 61.0586L733.926 65.6641C733.387 65.9922 732.73 66.2852 731.957 66.543C731.184 66.7773 730.34 66.9766 729.426 67.1406C728.512 67.3281 727.539 67.4687 726.508 67.5625C725.5 67.6562 724.492 67.7031 723.484 67.7031C721.797 67.7031 720.215 67.4687 718.738 67C717.285 66.5078 716.02 65.7461 714.941 64.7148C713.863 63.6602 713.008 62.3125 712.375 60.6719C711.766 59.0078 711.461 57.0039 711.461 54.6602V33.9883H701.477V28.9609H711.461V19.75H718ZM817.562 44.3945H796.258V67H789.684V15.8125H821.113V21.3672H796.258V38.875H817.562V44.3945ZM830.5 47.6289C830.5 44.8867 830.898 42.3438 831.695 40C832.492 37.6328 833.629 35.582 835.105 33.8477C836.605 32.1133 838.422 30.7539 840.555 29.7695C842.687 28.7617 845.09 28.2578 847.762 28.2578C850.457 28.2578 852.871 28.7617 855.004 29.7695C857.16 30.7539 858.977 32.1133 860.453 33.8477C861.953 35.582 863.102 37.6328 863.898 40C864.695 42.3438 865.094 44.8867 865.094 47.6289V48.4023C865.094 51.1445 864.695 53.6875 863.898 56.0312C863.102 58.375 861.953 60.4141 860.453 62.1484C858.977 63.8828 857.172 65.2422 855.039 66.2266C852.906 67.2109 850.504 67.7031 847.832 67.7031C845.137 67.7031 842.711 67.2109 840.555 66.2266C838.422 65.2422 836.605 63.8828 835.105 62.1484C833.629 60.4141 832.492 58.375 831.695 56.0312C830.898 53.6875 830.5 51.1445 830.5 48.4023V47.6289ZM837.004 48.4023C837.004 50.2773 837.227 52.0703 837.672 53.7812C838.117 55.4688 838.785 56.957 839.676 58.2461C840.59 59.5352 841.727 60.5547 843.086 61.3047C844.445 62.0547 846.027 62.4297 847.832 62.4297C849.613 62.4297 851.172 62.0547 852.508 61.3047C853.867 60.5547 854.992 59.5352 855.883 58.2461C856.797 56.957 857.477 55.4688 857.922 53.7812C858.367 52.0703 858.59 50.2773 858.59 48.4023V47.6289C858.59 45.7773 858.355 44.0078 857.887 42.3203C857.441 40.6094 856.762 39.1094 855.848 37.8203C854.957 36.5312 853.832 35.5117 852.473 34.7617C851.137 33.9883 849.566 33.6016 847.762 33.6016C845.957 33.6016 844.387 33.9883 843.051 34.7617C841.715 35.5117 840.59 36.5312 839.676 37.8203C838.785 39.1094 838.117 40.6094 837.672 42.3203C837.227 44.0078 837.004 45.7773 837.004 47.6289V48.4023ZM900.496 28.2578C901.105 28.2578 901.738 28.2812 902.395 28.3281C903.051 28.3516 903.672 28.4102 904.258 28.5039C904.867 28.5742 905.418 28.668 905.91 28.7852C906.426 28.9023 906.848 29.0312 907.176 29.1719L906.297 35.5352C905.031 35.2539 903.824 35.0547 902.676 34.9375C901.551 34.7969 900.367 34.7266 899.125 34.7266C896.078 34.7266 893.605 35.418 891.707 36.8008C889.832 38.1836 888.449 40.1172 887.559 42.6016V67H881.02V28.9609H887.207L887.523 35.0078C889.07 32.9219 890.922 31.2812 893.078 30.0859C895.258 28.8672 897.73 28.2578 900.496 28.2578ZM921.801 28.9609L921.977 32.5469C922.75 31.2109 923.758 30.168 925 29.418C926.266 28.668 927.789 28.2812 929.57 28.2578C933.062 28.2578 935.395 29.6172 936.566 32.3359C937.316 31.1172 938.301 30.1445 939.52 29.418C940.762 28.668 942.262 28.2812 944.02 28.2578C946.809 28.2578 948.953 29.1133 950.453 30.8242C951.953 32.5352 952.703 35.125 952.703 38.5938V67H946.516V38.5234C946.516 35.3359 945.051 33.7539 942.121 33.7773C941.348 33.7773 940.68 33.8828 940.117 34.0938C939.555 34.3047 939.086 34.5977 938.711 34.9727C938.336 35.3242 938.043 35.7461 937.832 36.2383C937.621 36.707 937.48 37.1992 937.41 37.7148V67H931.223V38.4883C931.223 36.9648 930.883 35.793 930.203 34.9727C929.523 34.1523 928.445 33.7539 926.969 33.7773C925.609 33.7773 924.555 34.0469 923.805 34.5859C923.055 35.125 922.504 35.8398 922.152 36.7305V67H915.965V28.9609H921.801Z" fill="black"/>
</g>
</svg>
